<?xml version="1.0" encoding="utf-8"?>
<!-- Generator: Adobe Illustrator 24.0.0, SVG Export Plug-In . SVG Version: 6.00 Build 0)  -->
<svg version="1.1" id="Capa_1" focusable="false" xmlns="http://www.w3.org/2000/svg" xmlns:xlink="http://www.w3.org/1999/xlink"
	 x="0px" y="0px" viewBox="0 0 512 512" style="enable-background:new 0 0 512 512;" xml:space="preserve">
<style type="text/css">
	.st0{fill:#E86DB6;}
	.st1{fill:#EB0081;}
</style>
<path class="st0" d="M433.6,480.8H79.4c-25.9,0-46.9-21-46.9-46.9V79.7c0-25.9,21-46.9,46.9-46.9h354.1c25.9,0,46.9,21,46.9,46.9
	v354.1C480.5,459.8,459.5,480.8,433.6,480.8z"/>
<path class="st1" d="M256.5,62.8c-107.2,0-194,86.8-194,194s86.8,194,194,194c37.7,0,74.6-11.1,105.9-31.5c9.4-6.1,11.4-19,4.3-27.7
	l-8-9.7c-6-7.3-16.6-9.1-24.5-4c-23.1,14.8-50.1,22.8-77.8,22.8c-79.4,0-143.9-64.6-143.9-143.9s64.6-143.9,143.9-143.9
	c78.3,0,143.9,45.1,143.9,125.2c0,30.3-16.5,62.4-45.5,65.5c-13.6-0.4-13.2-10.1-10.5-23.5l18.3-94.7c2.2-11.6-6.6-22.3-18.4-22.3
	H309c-5.4,0-9.9,4-10.5,9.4v0.1c-11.5-14-31.6-17-46.9-17c-58.3,0-107.8,48.7-107.8,118.5c0,51.1,28.8,82.8,75.1,82.8
	c21.1,0,44.9-12.2,58.7-30c7.4,26.7,31.8,26.7,55.3,26.7c85.2,0,117.6-56,117.6-115.3C450.5,131.3,364.5,62.8,256.5,62.8z
	 M239.5,300.9c-17.4,0-28.2-12.2-28.2-31.9c0-35.2,24.1-56.9,45.9-56.9c17.4,0,27.8,11.9,27.8,31.9
	C285,279.3,258.5,300.9,239.5,300.9L239.5,300.9z"/>
</svg>
