<?xml version="1.0" encoding="utf-8"?>
<!-- Generator: Adobe Illustrator 24.0.0, SVG Export Plug-In . SVG Version: 6.00 Build 0)  -->
<svg version="1.1" id="Capa_1" focusable="false" xmlns="http://www.w3.org/2000/svg" xmlns:xlink="http://www.w3.org/1999/xlink"
	 x="0px" y="0px" viewBox="0 0 511.9 512" style="enable-background:new 0 0 511.9 512;" xml:space="preserve">
<style type="text/css">
	.st0{fill:#E86DB6;}
	.st1{fill:#EB0081;}
</style>
<path class="st0" d="M433,480H78.9C53,480,32,459,32,433.1V78.9C32,53,53,32,78.9,32H433C459,32,480,53,480,78.9v354.1
	C480,459,459,480,433,480z"/>
<path class="st1" d="M184.4,388c0,1.8-2,3.2-4.5,3.2c-2.9,0.3-4.9-1.2-4.9-3.2c0-1.8,2-3.2,4.5-3.2C182.1,384.5,184.4,386,184.4,388
	z M157.3,384c-0.6,1.8,1.2,3.9,3.8,4.3c2.2,0.9,4.9,0,5.4-1.8c0.5-1.8-1.2-3.9-3.8-4.6C160.5,381.3,157.9,382.2,157.3,384L157.3,384
	z M195.8,382.5c-2.5,0.6-4.2,2.3-4.1,4.3c0.3,1.8,2.5,3,5.1,2.3c2.5-0.6,4.2-2.3,4.1-4.2C200.8,383.4,198.4,382.2,195.8,382.5z
	 M253.2,39.7C132.3,39.7,39.8,133.9,39.8,258c0,99.2,60.9,184.1,147.8,213.9c11.2,2,15.1-5,15.1-10.8c0-5.5-0.3-36.1-0.3-55
	c0,0-61,13.4-73.9-26.7c0,0-9.9-26-24.2-32.7c0,0-20-14,1.4-13.8c0,0,21.7,1.8,33.7,23.1c19.1,34.5,51.1,24.6,63.6,18.7
	c2-14.3,7.6-24.2,13.9-30.1c-48.6-5.5-97.7-12.7-97.7-98.8c0-24.6,6.7-36.9,20.6-52.6c-2.2-5.8-9.7-29.7,2.2-60.8
	c18.3-5.8,60.2,24.1,60.2,24.1c17.5-5,36.2-7.6,54.8-7.6s37.3,2.6,54.8,7.6c0,0,41.9-30,60.2-24.1c12,31,4.5,55,2.2,60.8
	c13.9,15.8,22.5,28.2,22.5,52.6c0,86.4-51.4,93.2-100.2,98.8c8,7.1,14.9,20.5,14.9,41.5c0,30.1-0.3,67.4-0.3,74.8
	c0,5.8,4.1,12.8,15.1,10.8c87.2-29.7,146.3-114.6,146.3-213.8C472.4,133.9,374.2,39.7,253.2,39.7z M124.6,348.2
	c-1.2,0.9-0.9,3,0.6,4.6c1.4,1.4,3.4,2,4.5,0.9c1.2-0.9,0.9-3-0.6-4.6C127.7,347.7,125.6,347.1,124.6,348.2z M115.1,341
	c-0.6,1.2,0.3,2.6,2,3.5c1.4,0.9,3.2,0.6,3.8-0.6c0.6-1.2-0.3-2.6-2-3.5C117.1,339.8,115.7,340.1,115.1,341z M143.4,372.8
	c-1.4,1.2-0.9,3.9,1.2,5.5c2,2,4.5,2.3,5.7,0.9c1.2-1.2,0.6-3.9-1.2-5.5C147.1,371.7,144.5,371.4,143.4,372.8z M133.4,359.7
	c-1.4,0.9-1.4,3.2,0,5.3c1.4,2,3.8,3,4.9,2c1.4-1.2,1.4-3.5,0-5.5C137.1,359.4,134.8,358.5,133.4,359.7L133.4,359.7z"/>
</svg>
