<?xml version="1.0" encoding="iso-8859-1"?>
<!-- Generator: Adobe Illustrator 19.0.0, SVG Export Plug-In . SVG Version: 6.00 Build 0)  -->
<svg version="1.1" id="Capa_1" xmlns="http://www.w3.org/2000/svg" xmlns:xlink="http://www.w3.org/1999/xlink" x="0px" y="0px"
	 viewBox="0 0 409.6 409.6" style="enable-background:new 0 0 409.6 409.6;" xml:space="preserve">
<path style="fill:#FFFFFF;" d="M78.173,292.284v42.223l91.887,15.314c20.528,3.422,41.474,3.511,62.029,0.265l98.671-15.578v-102.4
	H78.173"/>
<path style="fill:#602F75;" d="M201.9,359.287c-11.013,0-22.026-0.913-32.959-2.734L77.053,341.24
	c-3.294-0.546-5.707-3.393-5.707-6.733v-42.22c0-3.773,3.053-6.827,6.827-6.827S85,288.514,85,292.287v36.441l86.18,14.36
	c19.86,3.313,39.994,3.393,59.839,0.259l92.913-14.674v-89.74H78.171c-3.773,0-6.827-3.053-6.827-6.827s3.053-6.827,6.827-6.827
	h252.587c3.773,0,6.827,3.053,6.827,6.827v102.4c0,3.36-2.447,6.221-5.76,6.74l-98.673,15.58
	C222.779,358.467,212.339,359.287,201.9,359.287z"/>
<polygon style="fill:#EA3457;" points="200.717,172.312 17.068,225.28 200.717,278.248 392.534,225.28 "/>
<g>
	<path style="fill:#602F75;" d="M200.719,285.073c-0.64,0-1.273-0.087-1.893-0.266L15.173,231.84
		c-2.92-0.846-4.934-3.521-4.934-6.56c0-3.04,2.014-5.714,4.934-6.56l183.653-52.966c1.213-0.346,2.487-0.353,3.714-0.02
		l191.814,52.966c2.959,0.819,5.007,3.507,5.007,6.579s-2.046,5.76-5.007,6.579L202.54,284.824
		C201.939,284.993,201.333,285.073,200.719,285.073z M41.7,225.28l159.06,45.874l166.127-45.874L200.76,179.407L41.7,225.28z"/>
	<path style="fill:#602F75;" d="M358.066,382.293c-3.773,0-6.827-3.053-6.827-6.827V238.933c0-3.773,3.053-6.827,6.827-6.827
		s6.827,3.053,6.827,6.827v136.533C364.893,379.24,361.84,382.293,358.066,382.293z"/>
</g>
<circle style="fill:#FFE600;" cx="358.075" cy="382.293" r="20.48"/>
<path style="fill:#602F75;" d="M358.066,409.6c-15.06,0-27.307-12.247-27.307-27.307s12.247-27.307,27.307-27.307
	c15.06,0,27.307,12.247,27.307,27.307S373.126,409.6,358.066,409.6z M358.066,368.64c-7.526,0-13.653,6.127-13.653,13.653
	c0,7.526,6.127,13.653,13.653,13.653c7.526,0,13.653-6.127,13.653-13.653C371.72,374.767,365.593,368.64,358.066,368.64z"/>
<g>
	<circle style="fill:#FFE600;" cx="310.288" cy="81.92" r="75.093"/>
	<path style="fill:#FFE600;" d="M310.28,163.84c-45.174,0-81.92-36.746-81.92-81.92S265.106,0,310.28,0s81.92,36.746,81.92,81.92
		S355.452,163.84,310.28,163.84z M310.28,13.653c-37.641,0-68.267,30.626-68.267,68.267s30.626,68.267,68.267,68.267
		s68.267-30.626,68.267-68.267S347.919,13.653,310.28,13.653z"/>
</g>
<path style="fill:#EA3457;" d="M337.673,45.285c-8.409-3.299-18.5,0.614-27.035,9.264c-8.535-8.649-18.627-12.561-27.035-9.264
	c-13.629,5.347-17.661,27.569-9.004,49.637c7.772,19.811,28.465,30.715,36.04,31.285c7.574-0.57,28.268-11.474,36.04-31.285
	C355.336,72.854,351.303,50.632,337.673,45.285z"/>
<path style="fill:#602F75;" d="M310.64,133.033c-0.174,0-0.346-0.007-0.514-0.02c-10.327-0.78-33.154-13.346-41.88-35.599
	c-10.187-25.974-4.533-51.661,12.867-58.481c9.127-3.593,19.847-1.161,29.527,6.46c9.68-7.62,20.374-10.054,29.527-6.46l0,0
	c17.399,6.82,23.054,32.507,12.867,58.481c-8.726,22.253-31.553,34.819-41.88,35.599
	C310.986,133.026,310.812,133.033,310.64,133.033z M289.906,50.947c-1.34,0-2.62,0.227-3.806,0.693
	c-8.666,3.4-12.906,20.987-5.147,40.786c6.647,16.927,24.267,25.999,29.687,26.907c5.42-0.906,23.04-9.981,29.687-26.907
	c7.76-19.801,3.519-37.386-5.147-40.786l0,0c-5.453-2.14-12.814,0.741-19.68,7.7c-2.574,2.599-7.148,2.599-9.719,0
	C300.407,53.893,294.732,50.947,289.906,50.947z"/>
<g>
</g>
<g>
</g>
<g>
</g>
<g>
</g>
<g>
</g>
<g>
</g>
<g>
</g>
<g>
</g>
<g>
</g>
<g>
</g>
<g>
</g>
<g>
</g>
<g>
</g>
<g>
</g>
<g>
</g>
</svg>
