<?xml version="1.0" encoding="utf-8"?>
<!-- Generator: Adobe Illustrator 24.0.0, SVG Export Plug-In . SVG Version: 6.00 Build 0)  -->
<svg version="1.1" id="Capa_1" xmlns="http://www.w3.org/2000/svg" xmlns:xlink="http://www.w3.org/1999/xlink" x="0px" y="0px"
	 viewBox="0 0 724 299.4" style="enable-background:new 0 0 724 299.4;" xml:space="preserve">
<style type="text/css">
	.st0{fill:#FFFFFF;}
	.st1{clip-path:url(#SVGID_2_);fill:#F7DADC;}
	.st2{clip-path:url(#SVGID_2_);}
	.st3{fill:#D26F7F;}
	.st4{fill:#EFEDE9;}
	.st5{fill:#43436D;}
	.st6{clip-path:url(#SVGID_2_);fill:#D26F7F;}
	.st7{fill:#F7DADC;}
	.st8{clip-path:url(#SVGID_2_);fill:#ABDADE;}
	.st9{clip-path:url(#SVGID_2_);fill:#96A5CD;}
	.st10{clip-path:url(#SVGID_2_);fill:#F5F7F4;}
	.st11{opacity:0.7;fill:#F18DA1;}
	.st12{fill:#96A5CD;}
	.st13{fill:#020203;}
	.st14{font-family:'GlamQueen';}
	.st15{font-size:96.8926px;}
	.st16{font-size:41.8797px;}
</style>
<rect y="0.3" class="st0" width="724" height="299.1"/>
<g>
	<defs>
		<rect id="SVGID_1_" x="-0.7" y="0.3" width="724" height="299.4"/>
	</defs>
	<clipPath id="SVGID_2_">
		<use xlink:href="#SVGID_1_"  style="overflow:visible;"/>
	</clipPath>
	<path class="st1" d="M258.9,307.5c-6.6-0.1-13,0.3-19.2,1.3c-24.1,3.7-49-3-65-16.8c-24-20.8-59.8-34-99.8-34
		c-8.7,0-17.2,0.6-25.4,1.8c-16.3,2.4-35.5-4.5-42.8-15.4c-0.3-0.4-0.5-0.8-0.8-1.1c-8.5-12.1-4.7-27.1,9.6-35.8
		c26.9-16.5,44-41.4,43.7-69.2C58.6,89.3,3.6,49.6-63,50.1c-66.3,0.5-119.8,40.1-119.8,88.9c0,35.8,28.8,66.7,70.4,80.8
		c-23.6,11.1-39,30.8-38.1,53.1c1.2,30.6,33.8,56.1,75.4,58.8c8,0.5,15.7,0.2,23.1-0.9c-2.9,8.5-4.2,17.5-3.8,26.8
		c2.5,50.7,62.4,93,131.4,92.7c48.3-0.2,90.3-19.6,112.8-48.3c14.8,16.1,39.8,26.6,68.2,26.6c47,0,84.7-28.9,82.2-63.8
		C336.6,333.5,301.5,308.4,258.9,307.5z"/>
	<path class="st1" d="M728.2-67.1c-32.7-37.6-99.2-51.6-154-32.3c-0.4,0.2-0.9,0.3-1.3,0.5c-19.1,6.9-41.2,7-60.8,0.8
		c-27.2-8.7-59.6-7.9-86.9,4.5c-42.1,19-57.1,59.3-34,91.4c21.9,30.4,69.6,43.6,111.9,33.7c11.2-2.6,23.4,0.3,31,6.9
		c14.8,12.9,34,22.1,54.9,27c13,3.1,21.1,12.3,20.2,22.3c-1,11.2,2.8,22.8,12.1,33.1c20,22,59.8,29.9,92.1,18.3
		c38.1-13.8,51.9-48.1,31-74.6c-0.7-0.9-1.5-1.9-2.3-2.8c-12.1-13.5-13.6-30.5-4.9-45.3C752.6-9.9,750.9-41,728.2-67.1z"/>
	<path class="st1" d="M822.9,442.8c57.7-19.2,83.3-70.1,56.5-112.3c-18.7-29.4-57.7-47.2-99.2-48.4c-14.5-0.4-28-5.7-36.3-14.4
		c-17.1-17.9-40.5-31.3-66.9-39.2c-20.6-6.2-35.6-19.6-40.2-35.6c-1.3-4.6-3.5-9.1-6.5-13.4c-16.9-24.5-56.7-36.1-91.7-26.6
		c-41,11-60.1,44.9-42.6,73.7c0.1,0.1,0.1,0.2,0.2,0.3c8.6,14.1,7.6,30.5-4,43.4c-27.9,30.9-34.4,71.3-12.4,107.7
		c34.2,56.6,124.4,82.1,201.4,56.9c0.2,0,0.3-0.1,0.5-0.1c10.2-3.4,21.9-2.6,31.2,1.9C744.4,451.8,785.7,455.2,822.9,442.8z"/>
	<path class="st1" d="M85.1,41.3c0.9,5.7,2.9,11.4,6.3,17c16.7,27.4,60.5,40.5,98.5,29.4c40-11.7,59.1-45.1,42.7-74.2
		c-2.8-4.9-6.3-9.4-10.6-13.3c-13.6-12.7-18.1-29.5-11.8-45c7.2-17.8,6.3-37.5-4.5-55.9c-23.8-40.5-87.7-59.9-143.5-43.6
		C4.3-127.6-23.4-79.1,0.4-37c10.1,18,28,31.9,49.6,40.6C69.2,11.4,82.7,25.3,85.1,41.3z"/>
	<g class="st2">
		<path class="st0" d="M654.2,64.7c3.6-0.4,6.9,1.5,8.9,3.5c0.5,0.5,0.9,1,1.3,1.5c1.2,1.4,2.3,2.6,3.9,3.3c2.8,1.1,6.5,0.2,8.8-1
			c1.7-0.8,3.2-1.9,4.8-3c1.2-0.8,2.4-1.7,3.8-2.5c2.4-1.4,7.3-3.6,12.5-2.6c1.1,0.2,1.7,1,1.4,1.8c-0.3,0.8-1.4,1.3-2.5,1
			c-3.6-0.7-7.4,1.2-8.9,2c-1.2,0.7-2.3,1.5-3.5,2.3c-1.7,1.2-3.4,2.4-5.4,3.3c-3.5,1.7-8.7,2.9-13.1,1.1c-2.5-1-4-2.8-5.4-4.3
			c-0.4-0.5-0.8-0.9-1.2-1.3c-1.4-1.5-3.7-2.7-5.5-2.2c-1.6,0.4-2.5,2.1-3.4,4c-1.5,3.4-3.9,5.2-7,5.4c-2.6,0.2-5.2-0.9-7.5-3
			c-0.3-0.3-0.5-0.5-0.8-0.8c-1-1-1.9-2-3.2-2.4c-1.2-0.4-2.9-0.3-4,0.3c-1.1,0.6-1.6,1.8-1.2,2.8c0.3,0.8-0.4,1.6-1.5,1.8
			c-1.1,0.2-2.2-0.3-2.5-1.1c-0.8-2.1,0.3-4.5,2.6-5.9c2.3-1.4,5.7-1.7,8.3-0.7c2.1,0.8,3.5,2.1,4.7,3.4c0.2,0.2,0.5,0.5,0.7,0.7
			c0.8,0.8,2.3,2,3.8,1.9c0,0,0,0,0.1,0c1.7-0.2,2.8-1.9,3.5-3.4c0.9-2.1,2.2-4.9,5.9-5.9C653.3,64.8,653.8,64.7,654.2,64.7z"/>
		<path class="st0" d="M657,79.1c3.6-0.4,6.9,1.5,8.9,3.5c0.5,0.5,0.9,1,1.3,1.5c1.2,1.4,2.3,2.6,3.9,3.3c2.8,1.1,6.5,0.2,8.8-1
			c1.7-0.8,3.2-1.9,4.8-3c1.2-0.8,2.4-1.7,3.8-2.5c2.4-1.4,7.3-3.6,12.5-2.6c1.1,0.2,1.7,1,1.4,1.8c-0.3,0.8-1.4,1.3-2.5,1
			c-3.6-0.7-7.4,1.2-8.9,2c-1.2,0.7-2.3,1.5-3.5,2.3c-1.7,1.2-3.4,2.4-5.4,3.3c-3.5,1.7-8.7,2.9-13.1,1.1c-2.5-1-4-2.8-5.4-4.3
			c-0.4-0.5-0.8-0.9-1.2-1.3c-1.4-1.5-3.7-2.7-5.5-2.2c-1.6,0.4-2.5,2.1-3.4,4c-1.5,3.4-3.9,5.2-7,5.4c-2.6,0.2-5.2-0.9-7.5-3
			c-0.3-0.3-0.5-0.5-0.8-0.8c-1-1-1.9-2-3.2-2.4c-1.2-0.4-2.9-0.3-4,0.3c-1.1,0.6-1.6,1.8-1.2,2.8c0.3,0.8-0.4,1.6-1.5,1.8
			c-1.1,0.2-2.2-0.3-2.5-1.1c-0.8-2.1,0.3-4.5,2.6-5.9c2.3-1.4,5.7-1.7,8.3-0.7c2.1,0.8,3.5,2.1,4.7,3.4c0.2,0.2,0.5,0.5,0.7,0.7
			c0.8,0.8,2.3,2,3.8,1.9c1.8-0.1,2.9-1.9,3.5-3.4c0.9-2.1,2.2-4.9,5.9-5.9C656.1,79.2,656.6,79.1,657,79.1z"/>
		<path class="st0" d="M659.8,93.4c3.6-0.4,6.9,1.5,8.9,3.5c0.5,0.5,0.9,1,1.3,1.5c1.2,1.4,2.3,2.6,3.9,3.3c2.8,1.1,6.5,0.2,8.8-1
			c1.7-0.8,3.2-1.9,4.8-3c1.2-0.8,2.4-1.7,3.8-2.5c2.4-1.4,7.3-3.6,12.5-2.6c1.1,0.2,1.7,1,1.4,1.8c-0.3,0.8-1.4,1.3-2.5,1
			c-3.6-0.7-7.4,1.2-8.9,2c-1.2,0.7-2.3,1.5-3.5,2.3c-1.7,1.2-3.4,2.4-5.4,3.3c-3.5,1.7-8.7,2.9-13.1,1.1c-2.5-1-4-2.8-5.4-4.3
			c-0.4-0.5-0.8-0.9-1.2-1.3c-1.4-1.5-3.7-2.7-5.5-2.2c-1.6,0.4-2.5,2.1-3.4,4c-1.5,3.4-3.9,5.2-7,5.4c-2.6,0.2-5.2-0.9-7.5-3
			c-0.3-0.3-0.5-0.5-0.8-0.8c-1-1-1.9-2-3.2-2.4c-1.2-0.4-2.9-0.3-4,0.3c-1.1,0.6-1.6,1.8-1.2,2.8c0.3,0.8-0.4,1.6-1.5,1.8
			c-1.1,0.2-2.2-0.3-2.5-1.1c-0.8-2.1,0.3-4.5,2.6-5.9c2.3-1.4,5.7-1.7,8.3-0.7c2.1,0.8,3.5,2.1,4.7,3.4c0.2,0.2,0.5,0.5,0.7,0.7
			c0.8,0.8,2.3,2,3.8,1.9c1.7-0.1,2.9-1.9,3.5-3.4c0.9-2.1,2.2-4.9,5.9-5.9C658.9,93.6,659.4,93.5,659.8,93.4z"/>
	</g>
	<g class="st2">
		<path class="st3" d="M423.4,14.1c0.4,13.8,2.6,27.6,6.6,41c0.5,1.6,2.8,2,3.8,0.6c9.1-12.8,11.5-29.7,6-44.3
			c7.4,11,14.7,21.9,22.1,32.9c1.2,1.8,4.1,0.9,4-1.2c-1-14.6-6.6-28.9-15.9-40.6c9.8,13.1,23.5,23.6,39,30c1.8,0.7,3.6-1,2.8-2.7
			c-6.7-13.7-17.6-25.5-31-33.7c11.7,7.6,25.9,11.8,40.1,12c2,0,3-2.3,1.5-3.6c-5-4-10.5-7.5-16.3-10.4
			C475.4-11.3,460-17.2,447.5-16c-2.2,0.2-4.4,0.6-6.6,1.3c-0.1-0.2-0.2-0.4-0.3-0.6c-1.7-4.1-3.7-8-6-11.8
			c-4.6-7.7-10.3-14.9-16.8-21.2c-2.8-2.7-5.8-5.3-9-7.7c-1.9-1.5-5-0.5-5.4,1.8c-0.1,0.3-0.1,0.6-0.1,0.9c0.1,3.1,3.4,5.1,6.2,6.7
			c7.2,4.2,13.4,9.8,18.2,16.3c4.1,5.5,6.3,11.2,8.4,17.2C425.9-8.7,416.1-0.3,409.8,7c-8.7,10.2-14.3,22.8-15.8,35.9
			c-0.2,1.6,1.6,2.7,3.1,2C409.9,38.6,419.7,27.2,423.4,14.1z"/>
		<g>
			<path class="st4" d="M454.5-11.8c0.1,0,0.2-0.1,0.3,0l2.7,0.7c0.2,0.1,0.3,0.2,0.3,0.4c-0.1,0.2-0.3,0.3-0.4,0.2l-2.7-0.7
				c-0.2-0.1-0.3-0.2-0.3-0.4C454.4-11.7,454.4-11.8,454.5-11.8z"/>
			<path class="st4" d="M452.8-8.8c0.1-0.1,0.2-0.1,0.4,0l1.7,0.9c0.2,0.1,0.2,0.3,0.1,0.5c-0.1,0.2-0.3,0.2-0.5,0.1l-1.7-0.9
				c-0.2-0.1-0.2-0.3-0.1-0.5C452.7-8.7,452.8-8.8,452.8-8.8z"/>
			<path class="st4" d="M453.6-3.9c0.1-0.1,0.3-0.1,0.4,0l2.5,2c0.2,0.1,0.2,0.3,0,0.5c-0.1,0.1-0.4,0.2-0.5,0l-2.5-2
				C453.4-3.4,453.4-3.6,453.6-3.9C453.6-3.8,453.6-3.8,453.6-3.9z"/>
			<path class="st4" d="M450.7-3.4c0.1-0.1,0.3-0.1,0.4,0.1l2.5,2.3c0.1,0.1,0.1,0.4,0,0.5c-0.1,0.1-0.4,0.1-0.5,0l-2.5-2.3
				C450.5-3,450.5-3.2,450.7-3.4C450.7-3.4,450.7-3.4,450.7-3.4z"/>
			<path class="st4" d="M445.9-1.9C445.9-1.9,445.9-1.9,445.9-1.9c0.2-0.1,0.4,0,0.5,0.1l1.1,2c0.1,0.2,0,0.4-0.2,0.5
				c-0.2,0.1-0.4,0-0.5-0.1l-1.1-2C445.7-1.6,445.7-1.8,445.9-1.9z"/>
			<path class="st4" d="M444.8,2.5c0.2-0.1,0.4,0,0.5,0.1l1.3,1.9c0.1,0.2,0.1,0.4-0.1,0.5c-0.2,0.1-0.4,0.1-0.5-0.1L444.6,3
				C444.5,2.8,444.6,2.6,444.8,2.5C444.7,2.5,444.8,2.5,444.8,2.5z"/>
			<path class="st4" d="M445.6,8.4c0.2-0.1,0.4,0,0.5,0.1l1.7,2.1c0.1,0.2,0.1,0.4-0.1,0.5c-0.2,0.1-0.4,0.1-0.5-0.1l-1.7-2.1
				C445.3,8.8,445.4,8.6,445.6,8.4C445.5,8.5,445.5,8.4,445.6,8.4z"/>
			<path class="st4" d="M437.4,2.8C437.4,2.8,437.4,2.8,437.4,2.8c0.2-0.1,0.4,0,0.5,0.1l2.6,4.9c0.1,0.2,0,0.4-0.2,0.5
				c-0.2,0.1-0.4,0-0.5-0.2l-2.6-4.9C437.2,3.1,437.2,2.9,437.4,2.8z"/>
			<path class="st4" d="M441,3.5c0.2-0.1,0.4,0,0.5,0.1l1.1,1.8c0.1,0.2,0,0.4-0.1,0.5c-0.2,0.1-0.4,0-0.5-0.1l-1.1-1.8
				C440.8,3.8,440.8,3.6,441,3.5z"/>
			<path class="st4" d="M433.4,11.5c0,0,0.1,0,0.1,0c0.2,0,0.4,0.1,0.4,0.3l0.3,2.2c0,0.2-0.1,0.4-0.3,0.4c-0.2,0-0.4-0.1-0.4-0.3
				l-0.3-2.2C433.2,11.7,433.3,11.6,433.4,11.5z"/>
			<path class="st4" d="M431.4,16.8C431.4,16.8,431.4,16.7,431.4,16.8c0.3-0.1,0.5,0,0.5,0.2l0.5,2.1c0,0.2-0.1,0.4-0.3,0.4
				c-0.2,0-0.4-0.1-0.4-0.3l-0.5-2.1C431.2,17,431.2,16.9,431.4,16.8z"/>
			<path class="st4" d="M427.5,15.3c0,0,0.1,0,0.1,0c0.2,0,0.4,0.1,0.4,0.3l0.4,3c0,0.2-0.1,0.4-0.3,0.4c-0.2,0-0.4-0.1-0.4-0.3
				l-0.4-3C427.3,15.5,427.3,15.4,427.5,15.3z"/>
			<path class="st4" d="M426,7.3c0.1,0,0.1,0,0.2,0c0.2,0,0.4,0.2,0.4,0.4l-0.1,3.5c0,0.2-0.2,0.3-0.4,0.3c-0.2,0-0.4-0.2-0.4-0.4
				l0.1-3.5C425.8,7.5,425.9,7.4,426,7.3z"/>
			<path class="st4" d="M420.9,11c0.1,0,0.2-0.1,0.3,0c0.2,0,0.3,0.2,0.3,0.4l-0.6,2.2c0,0.2-0.2,0.3-0.4,0.3
				c-0.2,0-0.3-0.2-0.3-0.4l0.6-2.2C420.7,11.1,420.8,11,420.9,11z"/>
			<path class="st4" d="M416.6,13.4c0.1-0.1,0.2-0.1,0.3,0c0.2,0.1,0.3,0.3,0.2,0.5l-0.9,2c-0.1,0.2-0.3,0.3-0.5,0.2
				c-0.2-0.1-0.3-0.3-0.2-0.5l0.9-2C416.5,13.5,416.5,13.4,416.6,13.4z"/>
			<path class="st4" d="M413.9,11c0.1-0.1,0.3-0.1,0.4,0c0.2,0.1,0.2,0.3,0,0.5l-3.2,3.6c-0.1,0.1-0.4,0.2-0.5,0
				c-0.2-0.1-0.2-0.3,0-0.5L413.9,11C413.9,11.1,413.9,11.1,413.9,11z"/>
			<path class="st4" d="M411.3,9.7c0.2-0.1,0.3-0.1,0.5,0.1c0.1,0.1,0.1,0.4-0.1,0.5l-1.4,1.1c-0.2,0.1-0.4,0.1-0.5,0
				c-0.1-0.1-0.1-0.4,0.1-0.5L411.3,9.7C411.3,9.7,411.3,9.7,411.3,9.7z"/>
			<path class="st4" d="M419.7-0.3c0.1-0.1,0.3-0.1,0.4,0c0.2,0.1,0.2,0.3,0,0.5l-3,3.2c-0.1,0.1-0.4,0.2-0.5,0
				c-0.2-0.1-0.2-0.3,0-0.5L419.7-0.3C419.6-0.2,419.7-0.3,419.7-0.3z"/>
			<path class="st4" d="M419.5,5.3c0.1-0.1,0.3-0.1,0.4,0c0.2,0.1,0.2,0.3,0.1,0.5l-1.4,2c-0.1,0.2-0.3,0.2-0.5,0.1
				c-0.2-0.1-0.2-0.3-0.1-0.5l1.4-2C419.4,5.4,419.4,5.4,419.5,5.3z"/>
			<path class="st4" d="M425.5,1.3c0.1-0.1,0.3-0.1,0.4,0c0.2,0.1,0.2,0.3,0.1,0.5L424,4.9c-0.1,0.2-0.3,0.2-0.5,0.1
				c-0.2-0.1-0.2-0.3-0.1-0.5l2.1-3.1C425.4,1.4,425.5,1.3,425.5,1.3z"/>
			<path class="st4" d="M430.5,5.5c0.1,0,0.1,0,0.2,0c0.2,0,0.4,0.1,0.4,0.3l0.1,3.8c0,0.2-0.2,0.3-0.4,0.4c-0.2,0-0.4-0.1-0.4-0.3
				l-0.1-3.8C430.3,5.7,430.3,5.5,430.5,5.5z"/>
			<path class="st4" d="M433.6,4.6c0,0,0.1,0,0.1,0c0.2,0,0.4,0.1,0.4,0.3l0.5,3.6c0,0.2-0.1,0.4-0.3,0.4c-0.2,0-0.4-0.1-0.4-0.3
				l-0.5-3.6C433.4,4.8,433.5,4.7,433.6,4.6z"/>
			<path class="st4" d="M447.9-7.9c0.1-0.1,0.3-0.1,0.4,0l2.2,1.3c0.2,0.1,0.2,0.3,0.1,0.5c-0.1,0.2-0.3,0.2-0.5,0.1l-2.2-1.3
				c-0.2-0.1-0.2-0.3-0.1-0.5C447.8-7.8,447.8-7.8,447.9-7.9z"/>
			<path class="st4" d="M447.7-12.2c0.1,0,0.2-0.1,0.3,0l2.9,0.7c0.2,0,0.3,0.2,0.3,0.4c0,0.2-0.2,0.3-0.4,0.2l-2.9-0.7
				c-0.2,0-0.3-0.2-0.3-0.4C447.6-12.1,447.6-12.1,447.7-12.2z"/>
			<path class="st4" d="M449.8-14.2c0,0,0.1,0,0.2,0l2.4-0.1c0.2,0,0.4,0.1,0.4,0.3c0,0.2-0.1,0.4-0.3,0.4l-2.4,0.1
				c-0.2,0-0.4-0.1-0.4-0.3C449.7-14.1,449.7-14.2,449.8-14.2z"/>
			<path class="st4" d="M458.3-13.3c0.1,0,0.1-0.1,0.2,0l3,0.3c0.2,0,0.3,0.2,0.3,0.4c0,0.2-0.2,0.3-0.4,0.3l-3-0.3
				c-0.2,0-0.3-0.2-0.3-0.4C458.2-13.2,458.2-13.3,458.3-13.3z"/>
			<path class="st4" d="M445.4-5.7c0.1-0.1,0.3-0.1,0.4,0l2.4,2.2c0.1,0.1,0.2,0.3,0,0.5c-0.1,0.1-0.4,0.1-0.5,0l-2.4-2.2
				C445.2-5.2,445.2-5.5,445.4-5.7C445.3-5.6,445.4-5.6,445.4-5.7z"/>
			<path class="st4" d="M440.8-3.1C440.8-3.1,440.9-3.1,440.8-3.1c0.2-0.1,0.4,0,0.5,0.2l1.4,3.3c0.1,0.2,0,0.4-0.2,0.4
				c-0.2,0.1-0.4,0-0.5-0.2l-1.4-3.3C440.6-2.8,440.7-3,440.8-3.1z"/>
			<path class="st4" d="M437.9-1.4C438-1.4,438-1.5,437.9-1.4c0.3-0.1,0.5,0,0.5,0.2l0.8,2.7c0.1,0.2-0.1,0.4-0.2,0.4
				c-0.2,0.1-0.4-0.1-0.5-0.2L437.8-1C437.7-1.2,437.8-1.4,437.9-1.4z"/>
			<path class="st4" d="M434.7-0.6c0.1,0,0.1,0,0.2,0c0.2,0,0.4,0.2,0.4,0.4l-0.1,2.8c0,0.2-0.2,0.3-0.4,0.3c-0.2,0-0.4-0.2-0.4-0.4
				l0.1-2.8C434.5-0.5,434.6-0.6,434.7-0.6z"/>
			<path class="st4" d="M461.4-10.2c0.1,0,0.2-0.1,0.3,0l4.2,1.5c0.2,0.1,0.3,0.3,0.2,0.4c-0.1,0.2-0.3,0.3-0.5,0.2l-4.2-1.5
				c-0.2-0.1-0.3-0.3-0.2-0.4C461.3-10.1,461.3-10.2,461.4-10.2z"/>
			<path class="st4" d="M459.5-7.9c0.1,0,0.2-0.1,0.3,0l2.2,0.7c0.2,0.1,0.3,0.3,0.2,0.4c-0.1,0.2-0.3,0.3-0.5,0.2l-2.2-0.7
				c-0.2-0.1-0.3-0.3-0.2-0.4C459.4-7.8,459.5-7.9,459.5-7.9z"/>
			<path class="st4" d="M458.6-5.9c0.1-0.1,0.2-0.1,0.4,0l1.4,0.8c0.2,0.1,0.2,0.3,0.1,0.5c-0.1,0.2-0.3,0.2-0.5,0.1l-1.4-0.8
				c-0.2-0.1-0.2-0.3-0.1-0.5C458.5-5.8,458.6-5.9,458.6-5.9z"/>
			<path class="st4" d="M459.5,0.6c0.1-0.1,0.3-0.1,0.4,0.1l1.7,1.6c0.1,0.1,0.1,0.4,0,0.5c-0.1,0.1-0.4,0.1-0.5,0l-1.7-1.6
				C459.3,1,459.3,0.8,459.5,0.6C459.4,0.6,459.5,0.6,459.5,0.6z"/>
			<path class="st4" d="M455.7,1.9c0.1-0.1,0.3-0.1,0.4,0.1l1.7,1.6c0.1,0.1,0.1,0.4,0,0.5c-0.1,0.1-0.4,0.1-0.5,0l-1.7-1.6
				C455.4,2.3,455.4,2.1,455.7,1.9C455.6,1.9,455.6,1.9,455.7,1.9z"/>
			<path class="st4" d="M452.7,2c0.1-0.1,0.3-0.1,0.4,0.1l2.2,2.1c0.1,0.1,0.1,0.4,0,0.5c-0.1,0.1-0.4,0.1-0.5,0l-2.2-2.1
				C452.5,2.4,452.5,2.2,452.7,2C452.6,2.1,452.6,2,452.7,2z"/>
			<path class="st4" d="M431.3-1.9c0.1,0,0.2-0.1,0.2,0c0.2,0,0.3,0.2,0.3,0.4l-0.6,3.3c0,0.2-0.2,0.3-0.4,0.3
				c-0.2,0-0.3-0.2-0.3-0.4l0.6-3.3C431.2-1.8,431.2-1.9,431.3-1.9z"/>
			<path class="st4" d="M429.6-4.3c0.1-0.1,0.3-0.1,0.4,0c0.2,0.1,0.2,0.3,0.1,0.5l-1.4,2c-0.1,0.2-0.3,0.2-0.5,0.1
				c-0.2-0.1-0.2-0.3-0.1-0.5l1.4-2C429.5-4.2,429.5-4.2,429.6-4.3z"/>
			<path class="st4" d="M426.2-4.3c0.1-0.1,0.3-0.1,0.4,0c0.2,0.1,0.2,0.3,0.1,0.5l-1.4,1.7c-0.1,0.1-0.4,0.2-0.5,0.1
				c-0.2-0.1-0.2-0.3-0.1-0.5l1.4-1.7C426.1-4.2,426.2-4.2,426.2-4.3z"/>
			<path class="st4" d="M423.2,0.5c0.1-0.1,0.3-0.1,0.4,0c0.2,0.1,0.2,0.3,0.1,0.5l-0.9,1.1c-0.1,0.1-0.4,0.2-0.5,0
				c-0.2-0.1-0.2-0.3-0.1-0.5l0.9-1.1C423.2,0.5,423.2,0.5,423.2,0.5z"/>
			<path class="st4" d="M443.3-12.9c0.1,0,0.2-0.1,0.2,0l1.7,0.3c0.2,0,0.3,0.2,0.3,0.4c0,0.2-0.2,0.3-0.4,0.3l-1.7-0.3
				c-0.2,0-0.3-0.2-0.3-0.4C443.2-12.8,443.2-12.9,443.3-12.9z"/>
			<path class="st4" d="M441.7-10.2c0.1-0.1,0.3-0.1,0.4,0l2.5,1.9c0.2,0.1,0.2,0.3,0.1,0.5c-0.1,0.1-0.4,0.2-0.5,0.1l-2.5-1.9
				c-0.2-0.1-0.2-0.3-0.1-0.5C441.6-10.2,441.6-10.2,441.7-10.2z"/>
			<path class="st4" d="M439.8-8.8c0.2-0.1,0.4-0.1,0.5,0.1l1.7,2c0.1,0.1,0.1,0.4-0.1,0.5c-0.2,0.1-0.4,0.1-0.5-0.1l-1.7-2
				C439.5-8.4,439.6-8.6,439.8-8.8C439.7-8.7,439.7-8.8,439.8-8.8z"/>
			<path class="st4" d="M435.1-8.4C435.1-8.4,435.1-8.4,435.1-8.4c0.3-0.1,0.5,0,0.5,0.2l1.5,4.3c0.1,0.2,0,0.4-0.2,0.4
				c-0.2,0.1-0.4,0-0.5-0.2L434.9-8C434.9-8.2,434.9-8.3,435.1-8.4z"/>
			<path class="st4" d="M433-7.1C433-7.1,433-7.1,433-7.1c0.3-0.1,0.5,0,0.5,0.2l0.8,2.4c0.1,0.2,0,0.4-0.2,0.4
				c-0.2,0.1-0.4,0-0.5-0.2l-0.8-2.4C432.8-6.8,432.8-7,433-7.1z"/>
			<path class="st4" d="M431.4-8.1c0.1-0.1,0.3-0.1,0.5,0.1c0.1,0.1,0.1,0.4,0,0.5L430.1-6c-0.1,0.1-0.4,0.1-0.5,0
				c-0.1-0.1-0.1-0.4,0-0.5L431.4-8.1C431.3-8,431.4-8,431.4-8.1z"/>
			<path class="st4" d="M438.6-13.1c0.2-0.1,0.4,0,0.5,0.1l1.1,1.4c0.1,0.2,0.1,0.4-0.1,0.5c-0.2,0.1-0.4,0.1-0.5-0.1l-1.1-1.4
				C438.4-12.8,438.4-13,438.6-13.1C438.6-13.1,438.6-13.1,438.6-13.1z"/>
			<path class="st4" d="M437-10.9C437-11,437-11,437-10.9c0.2-0.1,0.4,0,0.5,0.2l1.1,2.1c0.1,0.2,0,0.4-0.2,0.5
				c-0.2,0.1-0.4,0-0.5-0.2l-1.1-2.1C436.8-10.7,436.9-10.9,437-10.9z"/>
			<path class="st4" d="M434.9-10.9c0.1-0.1,0.3-0.1,0.4,0c0.1,0.1,0.2,0.3,0,0.5l-0.7,0.7c-0.1,0.1-0.4,0.1-0.5,0
				c-0.1-0.1-0.2-0.3,0-0.5L434.9-10.9C434.9-10.9,434.9-10.9,434.9-10.9z"/>
			<path class="st4" d="M468.6-9.6c0.1-0.1,0.3-0.1,0.4,0l2.9,1.7c0.2,0.1,0.2,0.3,0.1,0.5c-0.1,0.2-0.3,0.2-0.5,0.1L468.6-9
				c-0.2-0.1-0.2-0.3-0.1-0.5C468.5-9.6,468.6-9.6,468.6-9.6z"/>
			<path class="st4" d="M470.8-5.9c0.1-0.1,0.3-0.1,0.4,0l2.1,1.4c0.2,0.1,0.2,0.3,0.1,0.5c-0.1,0.2-0.3,0.2-0.5,0.1l-2.1-1.4
				c-0.2-0.1-0.2-0.3-0.1-0.5C470.8-5.9,470.8-5.9,470.8-5.9z"/>
			<path class="st4" d="M467-6.1c0.1-0.1,0.3-0.1,0.4,0l2,1.3c0.2,0.1,0.2,0.3,0.1,0.5c-0.1,0.2-0.3,0.2-0.5,0.1l-2-1.3
				c-0.2-0.1-0.2-0.3-0.1-0.5C466.9-6,466.9-6,467-6.1z"/>
			<path class="st4" d="M462.3,5c0.1-0.1,0.3-0.1,0.4,0l2,1.8c0.1,0.1,0.2,0.3,0,0.5c-0.1,0.1-0.4,0.1-0.5,0l-2-1.8
				C462.1,5.5,462.1,5.2,462.3,5C462.3,5.1,462.3,5.1,462.3,5z"/>
			<path class="st4" d="M466.3,10.1c0.1-0.1,0.3-0.1,0.4,0l0.6,0.5c0.2,0.1,0.2,0.3,0,0.5c-0.1,0.1-0.4,0.2-0.5,0l-0.6-0.5
				C466.1,10.6,466.1,10.4,466.3,10.1C466.3,10.2,466.3,10.2,466.3,10.1z"/>
			<path class="st4" d="M460.8,8.1c0.1-0.1,0.3-0.1,0.4,0.1l2.8,2.6c0.1,0.1,0.1,0.4,0,0.5c-0.1,0.1-0.4,0.1-0.5,0l-2.8-2.6
				C460.6,8.5,460.6,8.3,460.8,8.1C460.8,8.1,460.8,8.1,460.8,8.1z"/>
			<path class="st4" d="M450.6,10.3c0.2-0.1,0.4,0,0.5,0.1l1.2,2c0.1,0.2,0,0.4-0.1,0.5c-0.2,0.1-0.4,0-0.5-0.1l-1.2-2
				C450.4,10.6,450.5,10.4,450.6,10.3z"/>
			<path class="st4" d="M451.6,15.5c0.2-0.1,0.4,0,0.5,0.1l1.1,1.4c0.1,0.2,0.1,0.4-0.1,0.5c-0.2,0.1-0.4,0.1-0.5-0.1l-1.1-1.4
				C451.3,15.8,451.4,15.6,451.6,15.5C451.5,15.5,451.5,15.5,451.6,15.5z"/>
			<path class="st4" d="M447.4,13c0.2-0.1,0.4,0,0.5,0.1l1.4,2c0.1,0.2,0.1,0.4-0.1,0.5c-0.2,0.1-0.4,0.1-0.5-0.1l-1.4-2
				C447.2,13.3,447.2,13.1,447.4,13C447.4,13,447.4,13,447.4,13z"/>
			<path class="st4" d="M434.5,18.8c0,0,0.1,0,0.1,0c0.2,0,0.4,0.1,0.4,0.3l0.5,2.1c0,0.2-0.1,0.4-0.3,0.4c-0.2,0-0.4-0.1-0.4-0.3
				l-0.5-2.1C434.3,19,434.3,18.8,434.5,18.8z"/>
			<path class="st4" d="M433.9,25.2C433.9,25.2,433.9,25.1,433.9,25.2c0.3-0.1,0.5,0,0.5,0.2l0.5,1.6c0.1,0.2-0.1,0.4-0.2,0.4
				c-0.2,0.1-0.4,0-0.5-0.2l-0.5-1.6C433.6,25.4,433.7,25.3,433.9,25.2z"/>
			<path class="st4" d="M431,21.8C431,21.8,431.1,21.8,431,21.8c0.3-0.1,0.5,0,0.5,0.2l0.8,2.6c0.1,0.2,0,0.4-0.2,0.4
				c-0.2,0.1-0.4,0-0.5-0.2l-0.8-2.6C430.8,22.1,430.9,21.9,431,21.8z"/>
			<path class="st4" d="M413.5,16.8c0.1-0.1,0.3-0.1,0.4,0c0.2,0.1,0.2,0.3,0.1,0.5l-1.2,1.6c-0.1,0.2-0.3,0.2-0.5,0.1
				c-0.2-0.1-0.2-0.3-0.1-0.5l1.2-1.6C413.4,16.9,413.5,16.9,413.5,16.8z"/>
			<path class="st4" d="M409.8,18.3c0.1-0.1,0.2-0.1,0.4,0c0.2,0.1,0.2,0.3,0.2,0.5l-1.1,2.1c-0.1,0.2-0.3,0.2-0.5,0.1
				c-0.2-0.1-0.2-0.3-0.2-0.5l1.1-2.1C409.7,18.3,409.7,18.3,409.8,18.3z"/>
			<path class="st4" d="M409,16.3c0.1-0.1,0.2-0.1,0.3,0c0.2,0.1,0.3,0.3,0.2,0.5l-0.2,0.5c-0.1,0.2-0.3,0.3-0.5,0.2
				c-0.2-0.1-0.3-0.3-0.2-0.5l0.2-0.5C408.8,16.4,408.9,16.3,409,16.3z"/>
		</g>
	</g>
	<g class="st2">
		<path class="st5" d="M561.5,33.7c2.4-2.2,2.6-5.4,0.6-7.9c-1.8-2.2-6-4.3-9.6-4c-4,0.4-6.2,4.4-6.4,6.9c-0.2,2.8,1.8,5.6,4.9,6.8
			c1.1,0.4,2.3,0.6,3.5,0.6C557.2,36.1,559.8,35.2,561.5,33.7z M561.2,26.1c1.7,2.2,1.5,5.1-0.5,7c-2.1,2-6.1,2.7-9.1,1.6
			c-2.7-1-4.5-3.5-4.3-6l0,0c0.2-2.4,2.2-5.9,5.4-6.2c0.2,0,0.4,0,0.7,0C556.3,22.5,559.7,24.3,561.2,26.1z M546.7,28.7L546.7,28.7
			L546.7,28.7z"/>
		<path class="st5" d="M583.9,25.1c-2.7-0.9-5.4-1.9-7.9-3l2.9-7.3c0.1-0.2-0.1-0.4-0.4-0.5c-0.3-0.1-0.6,0.1-0.7,0.3l-2.9,7.1
			c-2.1-1-4-2.1-5.9-3.3c-0.2-0.1-0.6-0.1-0.8,0c-0.2,0.2-0.2,0.4,0.1,0.6c2,1.3,4.1,2.4,6.3,3.4l-2.7,6.8c-0.1,0.2,0.1,0.4,0.4,0.5
			c0.1,0,0.2,0,0.3,0c0.2,0,0.3-0.1,0.3-0.3l2.7-6.6c2.5,1.1,5.1,2.1,7.8,3c0.1,0,0.3,0,0.4,0c0.1,0,0.3-0.1,0.3-0.2
			C584.3,25.4,584.2,25.1,583.9,25.1z"/>
	</g>
	<path class="st6" d="M533.6,170.1c-3.9,0.6-7.1,2.3-9.5,4c-3.1-2.1-7.3-3.2-11.3-2.9c-2.9,0.2-5.7,1.2-8,2.6
		c-3.9-2.7-9.7-3.5-14.3-1.7c-6.2,2.4-9.2,9.1-6.6,14.3c0.2,0.4,0.7,0.5,1.1,0.4c0.4-0.2,0.6-0.6,0.4-0.9
		c-2.3-4.6,0.4-10.4,5.8-12.5c4-1.5,8.9-0.9,12.3,1.4c-1.1,0.8-2,1.8-2.7,2.8c-1.2,1.7-1.6,3.8-1,5.5c0.4,1.1,1.2,1.8,2.4,2.2
		c1,0.4,2.2,0.4,3.4,0c1.3-0.4,2.5-1.3,3-2.4c0.8-1.7,0.6-3.8-0.6-5.8c-0.5-0.8-1.1-1.6-1.9-2.2c2-1.2,4.4-2,7-2.2
		c3.5-0.3,7.1,0.7,9.9,2.5c-0.3,0.3-0.6,0.5-0.9,0.8c-1.2,1.1-2.8,2.7-3.2,4.7c-0.4,1.8,0.5,4.2,2.9,5c1.2,0.4,2.6,0.4,3.9-0.2
		c1.5-0.6,2.7-1.9,3.1-3.2c0.6-2.1-0.3-4.4-2.5-6.5c-0.2-0.2-0.4-0.4-0.7-0.6c2.2-1.5,5.1-3,8.6-3.5c4.3-0.7,8.7,0.3,11.5,2.6
		c3,2.4,3.9,6.4,2,9.2c-0.2,0.3-0.1,0.8,0.3,1c0.4,0.2,0.9,0.1,1.1-0.3c2.2-3.4,1.2-8.1-2.3-10.9c-2.6-2.1-6.3-3.2-10.2-3.2
		C535.5,169.9,534.5,170,533.6,170.1z M502.8,183.9c-0.7-0.3-1.2-0.7-1.4-1.4c-0.5-1.2-0.1-3,0.8-4.3c0.7-1,1.5-1.8,2.5-2.6
		c0.7,0.6,1.2,1.3,1.7,2c1,1.6,1.2,3.3,0.6,4.6c-0.4,0.7-1.2,1.4-2.1,1.7c-0.4,0.1-0.7,0.2-1.1,0.2
		C503.5,184.1,503.2,184.1,502.8,183.9z M522.2,184.3c-1.5-0.5-2.2-2.2-1.9-3.5c0.3-1.6,1.8-3.1,2.8-4c0.3-0.3,0.6-0.5,0.9-0.8
		c0.2,0.2,0.4,0.4,0.6,0.6c0.8,0.8,2.7,3,2.1,5.3c-0.3,0.9-1.1,1.8-2.2,2.3c-0.5,0.2-1,0.3-1.4,0.3
		C522.9,184.4,522.6,184.4,522.2,184.3z"/>
	<g class="st2">
		<path class="st3" d="M163.6,157.1l-13.3,5.4c-1.6,0.6-3.4-0.2-3.4-1.5l0.3-5.5c0.1-1.6-0.2-3.8,0.1-5.7c0.2-1.1,1.8-1.8,3.2-1.3
			c4.5,1.6,8.9,3.8,13.1,5.8C165.2,154.9,165.1,156.5,163.6,157.1z"/>
		<path class="st7" d="M149.1,172.7c4.9,2.5,10,4.8,15.3,6.7c1.5,0.6,3.3-0.2,3.3-1.5c0.1-3.9,0.2-10.9,0.2-11.8
			c0-0.7,0.5-2.3-0.6-2.5c-1-0.2-2.9,0.7-3.8,0.9c-2.8,0.8-5.6,1.8-8.3,2.8c-2,0.8-4.1,1.6-6,2.5C147.7,170.5,147.7,172,149.1,172.7
			z"/>
		<path class="st3" d="M165,190.3l-14.2,7.6c-1.5,0.8-3.6,0-3.6-1.3l-0.3-6.2c-0.1-1.6-0.1-3.1-0.2-4.7c0-0.8-0.8-3.5,0-4.2
			c1.3-1.1,12.4,3.6,18.1,6C166.2,188.1,166.3,189.6,165,190.3z"/>
	</g>
	<path class="st6" d="M642.2,154.4c-0.6,1.5,0,2.9,1.6,4.2c5.4,4.2,20.5,5.7,26.8,6.1c8.3,0.6,16.5,0.5,22.9-0.1
		c-2,0.5-3.9,1-5.9,1.4c-1.3,0.3-2.7,0.6-4.1,0.9c0,0-0.1,0-0.1,0c0,0,0,0-0.1,0c-3.2,0.6-6.5,1.2-9.9,1.5l-0.4,0
		c-3.4,0.1-6.7,0.1-12.4-0.7c-3.9-0.5-9.1-2-13.6-3.4c-6.2-1.8-11.2-3.3-13.1-2.5c-0.4,0.2-0.7,0.4-0.9,0.8c-0.4,1.1-0.1,2.1,0.9,3
		c5,4.4,27.5,5.2,39.7,3.5h0c1.6-0.2,3.3-0.4,4.8-0.6c-13.1,5.4-33.5,19.7-34.2,27c-0.2,1.6,0.6,2.8,2.1,3.6c0.5,0.2,1,0.3,1.6,0.2
		c3.1-0.5,7.3-6,12.2-12.3c3-3.9,6.1-8,8.9-10.6c3-2.8,6.8-5,10.5-7c1.4-0.8,2.5-1.2,4.2-1.8c1.4-0.3,2.9-0.6,4.2-0.9
		c7.7-1.8,15.1-3.8,22.1-6c-15.8,8.2-34.8,22.5-35.6,30.4c-0.2,1.9,0.7,3.4,2.6,4.4c0.6,0.3,1.2,0.4,1.9,0.3
		c3.8-0.6,9.3-7.8,15.2-15.4c3.8-4.9,7.7-10.1,11.2-13.3c3.7-3.5,8.5-6.2,13.2-8.9c0.8-0.4,1.4-0.8,2.2-1.1c1-0.4,2-0.7,2.9-1.1
		c0.1,0,0.2-0.1,0.4-0.1c0.1,0,0.1,0,0.2-0.1c3.3-1.3,6.5-2.6,9.6-4c-12.6,9.4-23.8,24.5-27,37.8c-0.8,3.1,0.1,5.4,2.3,6.3
		c1.5,0.6,3.3,0.4,4.8-0.5c1.3-0.8,2-1.9,2.7-3c3-4.9,4.5-10.4,5.9-15.7c1.7-6.2,3.4-12.7,7.6-18c3.1-3.9,7.3-7.1,11.5-10.3
		c0.5-0.4,1-0.7,1.5-1c1.1-0.6,2.2-1.2,3.3-1.8c0,0,0.1,0,0.1-0.1c0,0,0,0,0.1,0c2-1.1,3.9-2.2,5.8-3.3c2.2-1.3,4.3-2.7,6.3-4.1
		c-4.7,4.8-9.8,11-14.2,17.3c-3.5,5.2-11.5,17.7-9.2,22.7c0.6,1.2,1.8,1.9,3.4,2.1c3.9,0.3,6.7-8.2,10-18c1.8-5.3,3.6-10.8,5.5-14.6
		c2.1-4.1,5.4-8,8.6-11.7c1.1-1.3,2.1-2.2,3.5-3.4l0,0c0.2-0.1,0.3-0.2,0.5-0.4c0,0,0,0,0,0c12.7-10.2,22.3-21.9,28.1-34.5
		c0.1-0.2,0-0.3-0.1-0.4c0,0-0.1-0.1-0.2-0.1c-0.3-0.1-0.6,0-0.6,0.2c-5.8,12.6-15.4,24.4-28.2,34.5c0,0-0.1,0-0.1,0.1
		c-0.4,0.3-0.8,0.6-1.3,1c-1.6,1.2-3.2,2.4-4.9,3.6c-2.7,0.5-4.6,0.8-7.2,0.9c-7,0.2-14.2,0.5-21.1-0.6c-6.5-1-15.2-3.3-23.6-5.5
		c-15.6-4.1-29.1-7.7-30.8-3.9c-0.8,1.8-0.3,3.4,1.5,4.9c6.7,5.5,28.3,7,37.2,7.5c16.3,0.8,32.5-0.1,42.1-2.1
		c-1.9,1.3-3.9,2.6-6,3.9c-0.8,0.5-1.7,1-2.5,1.5c-0.1,0-0.1,0-0.2,0.1c-2,1.1-3.3,1.7-5.4,2.4c-5.3,1.7-10.8,3.5-16.6,4.1
		c-8,0.9-16.1-0.3-24-1.5c-6.8-1-13.8-2.1-20.7-1.8c-1.5,0.1-3.2,0.2-4.6,0.8c-1.6,0.7-2.6,1.9-2.6,3.2c0.1,1.9,2.4,3.3,6.4,4
		c17,2.8,39.6,0.7,55.7-4.8c-4.4,2.1-9.1,4.1-13.9,6c-0.1,0-0.1,0-0.2,0.1c-2,0.6-4.3,1.4-6.8,2.5c-4.7,1.7-9.7,3.2-14.8,4.6
		c-0.1,0-0.1,0-0.2,0c-0.2,0-0.3,0.1-0.5,0.1c0,0,0,0,0,0c-1.7,0.3-3,0.5-4.7,0.5c-4.9,0.1-10,0.2-14.9-0.7
		c-4.6-0.8-10.8-2.8-16.8-4.6c-9.6-3-18-5.5-21-4.4C642.7,153.7,642.4,154,642.2,154.4z"/>
	<path class="st6" d="M95.9-2.6c0.3,1.5,1.7,2.7,3.9,3.3c7.3,2.1,21.9-1.2,27.8-2.7c7.8-2,15.2-4.6,20.7-7.2c-1.5,1-3,2.1-4.6,3.1
		c-1,0.7-2.1,1.4-3.2,2.1c0,0,0,0-0.1,0c0,0,0,0,0,0c-2.5,1.6-5.2,3.1-8.1,4.4l-0.4,0.1c-3.1,1.1-6,2.2-11.7,3.2
		c-3.9,0.7-9.4,1-14.3,1.1c-6.7,0.3-12,0.5-13.4,1.8c-0.3,0.3-0.4,0.6-0.3,1c0.3,1.1,1.1,1.9,2.6,2.4c7.1,2.5,28-3.8,38-9l0,0
		c1.4-0.6,2.7-1.3,4-2.1c-8.8,9-19.2,28.2-15.6,35.1c0.8,1.5,2.1,2.3,4,2.6c0.6,0.1,1.1,0,1.6-0.3c2.5-1.4,3.2-7.7,4-14.9
		c0.5-4.5,1-9.2,2-12.4c1.1-3.5,3.3-6.6,5.5-9.6c0.8-1.1,1.6-1.9,2.8-2.9c1.1-0.7,2.2-1.4,3.3-2.1c6-4,11.6-8.1,16.7-12.3
		c-9.6,12.3-18.8,31.1-14.9,38.6c0.9,1.8,2.6,2.9,4.9,3.2c0.7,0.1,1.3,0,1.9-0.3c3.1-1.8,4-10,5-18.7c0.6-5.7,1.3-11.5,2.5-15.6
		c1.4-4.3,4.2-8.3,6.9-12.1c0.4-0.6,0.9-1.1,1.3-1.6c0.7-0.6,1.4-1.3,2-1.9c0.1-0.1,0.2-0.2,0.3-0.2c0,0,0.1-0.1,0.1-0.1
		c2.3-2.2,4.4-4.4,6.4-6.6c-6.1,12.4-7.6,29.6-2.9,42.7c1.1,3.1,3.1,4.9,5.6,5c1.7,0.1,3.2-0.7,4-1.9c0.7-1.1,0.8-2.3,0.8-3.5
		c-0.1-5.4-1.9-10.8-3.6-16.1c-2-6.2-4.2-12.5-3.4-18.7c0.5-4.5,2.6-8.7,4.5-12.8c0.2-0.5,0.5-1,0.8-1.4c0.7-0.9,1.4-1.8,2-2.7
		c0,0,0.1-0.1,0.1-0.1c0,0,0,0,0-0.1c1.2-1.6,2.3-3.2,3.3-4.8c1.2-1.9,2.3-3.7,3.4-5.6c-1.5,5.8-2.6,13-3,20.1
		c-0.3,5.8-0.4,19.6,4.6,23.4c1.2,0.9,2.7,1.2,4.3,0.8c3.7-0.9,1.4-9.5-1.2-19.5c-1.4-5.4-2.9-10.9-3.3-15
		c-0.4-4.4,0.4-8.9,1.1-13.3c0.3-1.5,0.7-2.6,1.3-4.1l0,0c0.1-0.2,0.1-0.3,0.2-0.5c0,0,0,0,0,0c5.7-13.2,7.7-26.8,5.8-40
		c0-0.2-0.2-0.3-0.4-0.4c-0.1,0-0.1,0-0.2,0c-0.3,0-0.5,0.2-0.5,0.4c2,13.2-0.1,26.9-5.9,40.1c0,0,0,0.1,0,0.1
		c-0.2,0.4-0.4,0.8-0.6,1.3c-0.7,1.6-1.5,3.2-2.4,4.8c-2.1,1.3-3.7,2.2-6,3c-6.2,2.4-12.6,4.8-19.5,6c-6.5,1.1-15.7,1.7-24.6,2.3
		c-16.5,1.1-30.8,2-30.1,6c0.3,1.8,1.7,3.2,4.2,4c9.2,2.9,29.7-2.3,38.1-4.7c15.2-4.3,29.5-10.1,37-14.9c-1,1.8-2.1,3.6-3.2,5.4
		c-0.5,0.7-0.9,1.4-1.4,2.1c-0.1,0-0.1,0.1-0.2,0.1c-1.2,1.6-2,2.6-3.5,3.8c-3.9,3.2-7.8,6.5-12.7,8.9c-6.7,3.3-14.8,4.7-22.7,6
		c-6.7,1.2-13.7,2.4-19.8,4.7c-1.4,0.5-2.8,1.1-3.7,2.1c-1.1,1.1-1.3,2.6-0.5,3.7c1.2,1.7,4.1,2.3,8.1,1.7
		c17.1-2.7,36.3-11.6,47.9-21.5c-2.8,3.3-5.9,6.6-9.2,9.8c0,0-0.1,0.1-0.1,0.1c-1.5,1.1-3.1,2.6-4.8,4.4c-3.4,3-6.9,5.9-10.7,8.8
		c0,0-0.1,0-0.1,0c-0.1,0.1-0.3,0.2-0.4,0.2c0,0,0,0,0,0c-1.3,0.8-2.4,1.4-3.9,1.9c-4.4,1.6-8.9,3.2-13.9,3.9
		c-4.7,0.7-11.4,0.8-17.9,1C107.4-6,98.4-5.8,96.3-3.9C95.9-3.5,95.8-3.1,95.9-2.6z"/>
	<path class="st8" d="M671,234.2c-2.1-0.1-3.8,0.5-5.2,1.9c-4.5,4.6-3.6,15.5-3,20c0.8,5.9,2.4,11.7,4.4,16.1c-1-1.3-2-2.6-2.9-3.9
		c-0.6-0.9-1.3-1.8-1.9-2.7c0,0,0,0,0-0.1c0,0,0,0,0,0c-1.4-2.1-2.8-4.3-3.8-6.7l-0.1-0.3c-0.7-2.4-1.4-4.7-1.4-8.9
		c0-2.9,1-6.8,1.9-10.2c1.2-4.7,2.2-8.5,0.9-9.7c-0.3-0.3-0.7-0.4-1.2-0.5c-1.5-0.1-2.8,0.3-3.8,1.2c-4.9,4.4-1.7,20.4,2.7,28.6l0,0
		c0.5,1.1,1.1,2.2,1.7,3.3c-9.5-8.2-31.8-20-41.5-19.2c-2.1,0.2-3.5,0.9-4.3,2.1c-0.2,0.4-0.2,0.8,0,1.2c1.2,2.1,9.1,4,18.3,6.3
		c5.7,1.4,11.6,2.9,15.5,4.3c4.2,1.6,7.7,3.9,11.1,6.1c1.3,0.8,2.1,1.6,3.1,2.6c0.6,1,1.3,1.9,2,2.8c3.7,5.1,7.7,10,11.9,14.5
		c-13.6-9.6-35.7-20.4-46.2-19.5c-2.5,0.2-4.3,1.1-5.2,2.6c-0.3,0.5-0.3,0.9,0,1.4c1.5,2.6,11.9,5.2,22.9,7.9
		c7.1,1.8,14.5,3.6,19.5,5.4c5.3,2,9.7,4.9,14,7.7c0.7,0.5,1.3,0.9,1.8,1.3c0.7,0.6,1.3,1.2,2,1.9c0.1,0.1,0.2,0.2,0.2,0.2
		c0,0,0.1,0.1,0.1,0.1c2.3,2.1,4.6,4.1,7,6c-14.6-7.1-36.4-12.2-54.3-12.1c-4.2,0-7,1-7.8,2.8c-0.5,1.1,0.1,2.4,1.6,3.3
		c1.2,0.7,2.8,1.1,4.4,1.4c7,1.2,14.4,1.2,21.6,1.3c8.4,0,17.1,0.1,24.9,2c5.7,1.4,10.7,3.8,15.5,6.2c0.6,0.3,1.1,0.6,1.6,0.9
		c1,0.7,2,1.4,2.9,2c0,0,0.1,0.1,0.1,0.1c0,0,0,0,0.1,0c1.8,1.2,3.6,2.3,5.4,3.4c2.1,1.3,4.3,2.5,6.5,3.7
		c-7.1-2.4-16.1-4.9-25.2-6.8c-7.4-1.5-25.2-4.9-31.3-2.3c-1.5,0.6-2.2,1.6-2.1,2.8c0.3,2.8,11.9,3.2,25.4,3.7
		c7.2,0.3,14.7,0.5,20.1,1.2c5.8,0.7,11.4,2.3,16.8,3.9c1.9,0.5,3.3,1.1,5,1.9l0,0c0.2,0.1,0.4,0.2,0.6,0.3c0,0,0,0,0,0
		c15.7,7.1,32.7,11.7,50.2,13.5c0.2,0,0.4-0.1,0.6-0.2c0,0,0.1-0.1,0.1-0.1c0.1-0.2-0.1-0.4-0.4-0.4c-17.5-1.8-34.6-6.4-50.3-13.5
		c0,0-0.1,0-0.1,0c-0.5-0.2-1-0.5-1.5-0.7c-1.9-0.9-3.8-1.8-5.6-2.8c-1.2-1.8-1.9-3.1-2.5-4.9c-1.6-4.9-3.2-9.9-3.2-15
		c0.1-4.8,1.5-11.3,2.8-17.7c2.5-11.8,4.6-21.9-0.6-22.4c-2.4-0.2-4.5,0.4-6.1,2c-5.9,5.7-4,21.2-2.9,27.6
		c2,11.6,6.1,22.9,10.5,29.3c-2.1-1.1-4.1-2.3-6.1-3.5c-0.8-0.5-1.6-1-2.4-1.5c0,0-0.1-0.1-0.1-0.1c-1.8-1.2-2.9-2-4.1-3.4
		c-3.2-3.4-6.5-7-8.4-11c-2.6-5.4-2.5-11.4-2.4-17.2c0.1-5,0.2-10.1-1.4-14.9c-0.4-1.1-0.8-2.2-1.8-3.1c-1.2-1-3-1.5-4.6-1.2
		c-2.4,0.4-3.9,2.3-4,5.2c-0.6,12.5,6.4,28,16.5,38.4c-3.6-2.7-7.1-5.7-10.4-8.7c0,0-0.1-0.1-0.1-0.1c-1.1-1.3-2.7-2.8-4.5-4.4
		c-3-3-6-6.2-8.8-9.5c0,0,0-0.1,0-0.1c-0.1-0.1-0.1-0.2-0.2-0.3c0,0,0,0,0,0c-0.7-1.1-1.2-2-1.6-3.2c-1-3.4-2-7-1.8-10.6
		c0.3-3.4,1.6-8.1,2.9-12.7c2.1-7.3,3.9-13.7,1.9-15.6C672.1,234.5,671.6,234.3,671,234.2z"/>
	<g class="st2">
		<path class="st0" d="M619,342.8c0,0,6,2.2,10.5-2.1c4.5-4.3-6.4-7.9-7.1-10.8c-0.7-2.9-8.6-3.1-7.6,1.3
			C615.8,335.5,610.8,339.8,619,342.8z"/>
		<path class="st0" d="M556.8,322.3c0,0,5.7-3,9.7,0.7c4,3.7,5.2,9.1,9.9,8.6c4.8-0.4,4.5,9.1-3.4,10.5s-7.3-7-12.5-9.8
			C555.5,329.4,552.8,324.8,556.8,322.3z"/>
		<path class="st0" d="M607.9,320.6c0,0,5.1,1.3,7.8-2.5c2.7-3.8-3.2-3.6-5.8-7.3c-4.8-7-6.3-5.9-8.3-2.8
			C599.5,311.3,599,319.9,607.9,320.6z"/>
	</g>
	<path class="st9" d="M58.2,287.9c-2.6,1.6-8-1.7-9.7-2.7c-4.7-2.6-8.1-6-10.3-10c0-0.1-0.1-0.1-0.1-0.2c-4.9,1-9.8,1.9-14.7,2.9
		c0,0,0,0,0,0c0.1,0.1,0.1,0.3,0.2,0.4c0.1,0,0.3-0.1,0.4,0c5.7,0.6,11.2,2.5,14.9,5.8c1.6,1.5,4.6,4.6,2.1,6.3
		c-2.8,1.9-7.8-0.7-10-1.9c-4.6-2.6-7.6-6.2-9.2-10.2c0,0,0,0,0-0.1c-5,0.9-10,1.8-15.1,2.7c0,0.1,0,0.1,0,0.2c-0.1,0.3-0.1,0.6,0,1
		c4.8,1.8,11.3,4.3,14.2,7.8c1.4,1.7,2,4.5-1.2,5.2c-3.5,0.8-7.5-2.5-9.3-4.3c-2.5-2.4-5.7-6.4-5.4-9.6c-7,1.2-13.9,2.3-20.9,3.3
		c-4.4,3.8-8.8,7.5-13.2,11.3c3.4-1,7.8-1.1,11-1.3c2.9-0.1,10.7-0.5,11.3,2.7c0.5,2.7-5,2.9-7.4,3c-5.8,0.4-11.5-0.3-16.9-1.9
		l-0.1-0.1c-0.3,0.1-0.5,0.1-0.7,0c-6,5.2-12,10.4-17.8,15.7c0,0-0.1,0-0.1,0c0.4,0.6-0.7,1.2-1.4,0.7c-2.7-2.1-5.5-4.6-5.7-7.6
		c-0.4-0.2-0.5-0.6-0.1-0.9c0.1,0,0.1-0.1,0.1-0.1c0.1-0.2,0.3-0.3,0.6-0.4c6-4,11.9-8.1,17.8-12.2c-6.3,1.2-17.2,2.8-15.4-1.3
		c0.9-2.2,5.9-2.7,8.5-2.9c2.5-0.2,5,0.1,7.4,0.6c-1.3-1.8-2.4-3.6-2.8-5.6c-0.4-1.6-0.9-5.3,1.8-6.1c2.6-0.7,4.9,1.5,5.7,3.1
		c1.3,2.5,0.9,5.4,0.7,8c5-3.5,9.9-7,14.8-10.6c-0.3-1.5-0.5-3-0.6-4.5c-3.9,1.1-7.9,1.9-12,2.3c-1.5,0.1-3.8,0.6-5-0.3
		c-0.7-0.6-0.6-1.3,0-1.9c2.1-2.1,7.8-2.8,11-3c1.2-0.1,4.5-0.4,5.5,0.4c0.2,0.2,0.3,0.4,0.3,0.5c-0.1-2-0.1-3.9,0-5.9
		c-4.3,1.4-9.6,1.4-14,1c-2.6-0.3-9.5-0.9-9.7-3.6c-0.1-2.9,6.5-3.1,9.2-3.3c5.4-0.2,10.5,0.8,14.8,3.1c0.2-1.3,0.4-2.5,0.6-3.8
		c-4.2-2.1-7.6-4.9-9.6-8.4c-1.3-2.4-3.9-8.7,0.1-10.5c3.7-1.8,6.2,2.8,7.4,4.5c2.5,3.6,4.6,7.3,4.7,11.3c0.1,0.1,0.2,0.2,0.3,0.3
		c0.8-3,2.4-5.7,4.9-8.2c1.3-1.2,5.4-5.5,8.2-4.9c6.6,1.4-8.7,14.8-11.4,17c0.2,0.8,0.3,1.7,0.4,2.5c0.2,1.2,0.3,2.4,0.4,3.6
		c1.9-3.3,4.2-6.3,7.2-9.2c1.1-1,4.7-5.6,7.3-4.1c2.3,1.3-0.6,5.3-1.6,6.6c-3,3.7-7.9,6.8-12.5,9.4c0.2,1.4,0.4,2.8,0.5,4.2
		c9.1-6.7,17.9-13.6,26.5-20.7c-1.3-2.5-2.2-5-2.9-7.6c-3.3-2.5-6.3-5.3-9.1-8.1c-1.4-1.4-3.3-3-4.7-4.7c-3.6,1.6-7.5,3.2-11.7,3.8
		c-1.9,0.3-7.3,0.9-7.6-1.3c-0.3-2.3,4.9-4.4,7.2-5c3.6-0.9,7.5-0.6,10.9,0.7c-0.1-0.2-0.2-0.5-0.3-0.7c-0.1,0-0.2-0.1-0.3-0.2
		c-2.2-2.6-3.5-5.5-3.7-8.6c-0.1-1.7-0.2-6.5,2.5-7.3c7-2,4.4,12.9,4.2,14.6c0,0.3-0.3,0.5-0.6,0.6c4.1,3,8.1,6,12,9.1
		c-0.2-2.8-0.1-5.6,0.2-8.4c-2.4-0.5-4.9-1.2-6.6-2.6c-1-0.8-2.5-2.6-1.5-3.8c1.9-2.2,6.7,2,8.4,3.9c0.4-2.6,0.9-5.2,1.6-7.8
		c-0.4,0.1-0.9,0-1.1-0.3c-2.9-0.7-5.6-1.9-7.6-3.6c-1.1-1-4.3-3.9-2.6-5.2c1.5-1.2,4.5,0.9,5.6,1.6c2.7,1.7,4.6,3.8,5.9,6.2
		c0.1,0,0.1,0,0.2,0c0.7-2.5,1.4-5,2.3-7.5c0,0,0,0,0,0c-0.5-4.1,0.3-8.2,2.5-12c0.9-1.6,3.5-6.5,6.9-6.3c8.9,0.5-5.4,16.6-6.6,18.2
		c-0.3,2-0.5,4.1-0.6,6.1c1.9-2.3,4.2-4.6,7.1-6.3c1.4-0.8,4.3-2.1,6.2-1.3c2.5,1.1-0.3,3.7-1.5,4.7c-2.9,2.7-7.1,4.5-11.1,6.2
		c-0.3,0.1-0.6,0.1-0.9,0c-0.1,2.3-0.2,4.7-0.1,7c2-2.6,4.8-4.9,8.3-6.7c1.9-1,6.7-3.4,8.8-1.4c2.4,2.4-2.4,5.4-4.4,6.7
		c-3.5,2.4-7.2,4.3-12,4.9c-0.2,0-0.4,0-0.6-0.1c0.3,6.1,1,12.3,2.3,18.4c11.3-9.6,22-19.6,31.9-30c-0.2,0-0.5,0-0.7-0.1
		c-4-2.3-7.2-5.2-9.2-8.7c-0.8-1.4-3.6-5.8-0.2-6.6c2.9-0.7,5.4,2.3,6.6,3.7c2.6,2.9,4.1,6.1,5.5,9.4c2.2-2.3,4.3-4.7,6.4-7.1
		l-0.1,0c-0.6-0.1-1-0.8-0.3-1.2c0,0,0.1,0,0.1-0.1c2.9-4.6,6.2-9.2,11-12.8c1.7-1.3,7.6-5.9,10.5-4.5c4.5,2.2-10.2,12-17.3,16.5
		c-2.8,3.5-5.8,6.9-8.8,10.3c3.9-2.8,8.6-4.9,13.9-6.1c2.6-0.6,8.7-2.1,10.4,0.3c3.9,5.9-20.6,6.8-24.4,7c-0.3,0-0.5-0.1-0.6-0.2
		c0,0.1,0.1,0.1,0.1,0.2c0.2,0.6-0.6,0.9-1.1,0.7c-3.2,3.6-6.5,7.1-9.9,10.5c10.9-3.8,22.1-6.8,33.7-9.1c0.1-0.1,0.2-0.3,0.4-0.3
		c4.8-2,9.9-3.4,15.4-3.9c2.6-0.3,9.1-1.1,9.7,1.9c0.5,3-6.5,3.8-9.1,4.1c-4.6,0.6-9.3,0.4-13.8-0.4c-4.2,1.8-8.5,3.5-12.9,5.1
		c0,0,0,0,0,0c5.6,1.1,10.7,2.8,15.3,5.4c1.4,0.8,5,2.4,3.3,4c-2.4,2.2-10.1-1-12.3-2.1c-3.3-1.6-6.4-3.6-7.7-6.3
		c-0.2,0-0.4-0.1-0.6-0.1c-0.1,0-0.3-0.1-0.3-0.1c-4.2,1.5-8.4,2.9-12.7,4.2c5.4,0.4,10.7,1.9,14,5.3c1.7,1.8,4.5,5.8,2.4,7.9
		c-2.3,2.3-7.4-0.3-9.4-1.4c-4.7-2.6-7.4-6.6-9.2-10.6c-0.1-0.2,0-0.3,0-0.4c-3.9,1.2-7.8,2.4-11.6,3.5c-0.4,0.1-0.7,0-0.9-0.2
		c-4.5,4.4-9.1,8.7-13.8,13c4.7-1.6,9.7-2.5,15-2.6c3.6-0.1,10.8-0.2,11.3,3.5c0.5,3.5-7.1,4.9-10.4,5.3c-6.5,0.8-12.9-0.3-19.1-1.6
		c-0.7-0.1-0.7-0.7-0.4-1l-0.1-0.1c-8.8,8-17.9,15.8-27,23.6c5-0.2,9.9-0.7,14.8-1.3c0.1-0.2,0.2-0.3,0.5-0.4
		c0.4-0.1,0.8-0.2,1.2-0.3c-0.3-0.2-0.5-0.5-0.2-0.8c1.8-1.9,19.9-16.4,22.7-11.1c1.4,2.6-4.7,6.4-7,7.7c-2.9,1.6-6.2,2.8-9.6,3.9
		c5.7-0.8,11.3-1.7,17-2.5c-0.2-0.2-0.4-0.4-0.2-0.7c2.3-3.6,5.4-6.9,9.6-9.4c1.8-1.1,5.5-3.7,8.1-2.4c4.4,2.4-6.3,8.7-12.5,11.9
		c4.5-0.6,8.9-1.1,13.4-1.4c5.6-2.1,11.6-3.5,17.9-3.8c2.6-0.1,10.5-0.4,10.5,2.8c0,3-8.6,3.4-11.3,3.7c-5.8,0.6-11.6,0.3-17.4-0.6
		c-2.8,0.6-5.5,1.2-8.3,1.8c5.2,2,10.7,3.9,14.3,7.4C57.3,282.9,60.6,286.5,58.2,287.9z"/>
	<path class="st10" d="M664.1,9c-0.4-0.3-0.9-0.3-1.7-0.1c-4.9,1.6-4.9,10.4-4.8,12.3c-0.5-0.1-0.9-0.1-1.4-0.1
		c0.3-2.1,1.5-12.5-1.5-13.9c-0.4-0.2-1-0.3-1.9,0.1c-5,2.2,0.5,12.4,1.5,14.1c-0.2,0.1-0.3,0.1-0.5,0.2c-0.8-1.6-5-10-8.8-10.3
		c-0.9-0.1-1.6,0.2-2.3,0.9c-0.7,0.7-1,1.5-0.8,2.4c0.8,3.5,8.6,7.3,10.3,8.1c-0.1,0.1-0.3,0.3-0.4,0.4c-1.7-0.9-11.3-5.6-15.9-4.3
		c-1.1,0.3-1.8,0.9-2.2,1.7c-0.4,0.9-0.2,1.6,0.4,2.2c2.8,2.6,14.2,1.9,16.8,1.8c-0.1,0.2-0.1,0.3-0.2,0.5
		c-1.7,0.1-10.5,0.5-14.2,3.4c-1.1,0.8-1.6,1.8-1.6,2.9c0,0.9,0.4,1.5,1.2,1.8c3.3,1,12.6-4.8,14.7-6.2c0.1,0.2,0.2,0.4,0.3,0.6
		c-1.3,1-8.6,6.5-6.5,9.6c0.3,0.5,0.8,0.7,1.3,0.7c0.6-0.1,1.3-0.5,2-1.2c2-2.1,4.1-6.3,4.7-7.7c0,0,0.1,0.1,0.1,0.1
		c0.1,0.1,0.2,0.1,0.3,0.2c-0.6,1.3-4.1,8.9-1.4,11.9c0.7,0.8,1.3,0.7,1.7,0.5c0.2-0.1,0.3-0.2,0.5-0.3c1.7-1.8,2.1-8.4,0.9-11.3
		c0.6,0.2,1.1,0.4,1.7,0.5c-0.2,1.3-0.9,7.9,1.8,10c0.6,0.5,1.3,0.7,2.1,0.7c1,0,1.7-0.3,2.2-0.8c0.1-0.1,0.1-0.1,0.2-0.2
		c1.7-2.3-2.9-8.1-4.1-9.6c0.6-0.1,1.2-0.3,1.8-0.6c1.1,1.3,6.1,6.9,9.4,6.9c0.7,0,1.3-0.3,1.8-0.7c0,0,0,0,0,0
		c0.3-0.3,0.4-0.7,0.3-1.2c-0.6-2.5-8.3-5.8-9.9-6.5c0.4-0.5,0.7-0.9,0.9-1.3c1.5,1.3,7.2,5.8,11,5.4c0.8-0.1,1.5-0.4,2.1-1
		c0.1-0.1,0.2-0.3,0.3-0.4c0.6-0.8,0.6-1.5,0.1-2.2c-1.9-2.6-11.2-3.1-13.1-3.2c0-0.3,0-0.5-0.1-0.8c0-0.1,0-0.1,0-0.2
		c2.5,0.4,12.7,1.7,15.6-0.5c0.1-0.1,0.2-0.2,0.3-0.3c0.5-0.5,0.6-1.2,0.4-1.9c-0.3-0.9-1-1.5-2.1-1.9c-4.3-1.3-13.3,2.5-15,3.2
		c-0.3-0.3-0.6-0.5-1-0.8c2.3-1,9.9-4.3,12.1-6.7c0.4-0.4,0.6-0.8,0.6-1.2c0-0.5-0.5-0.8-1.3-0.9c-5.4-1.1-12,6.5-13.1,7.9
		c-0.1-0.1-0.3-0.1-0.4-0.1C660.4,19.8,666,10.5,664.1,9z M662.7,9.4c0.5-0.2,0.8-0.2,0.9,0c1.3,1-2.3,7.8-4.9,12.1
		c-0.1,0-0.3-0.1-0.4-0.1C658.2,20.1,658.1,11,662.7,9.4z M653.2,7.8c0.5-0.2,0.9-0.2,1.2-0.1c2.4,1.1,1.7,10,1.2,13.5
		c-0.2,0-0.4,0.1-0.6,0.1C654.2,19.9,648.6,9.8,653.2,7.8z M642.6,14.6c-0.2-0.8,0.1-1.4,0.7-2c0.5-0.5,1.1-0.7,1.7-0.7
		c3.1,0.3,7,7.2,8.4,10.1c-0.2,0.1-0.4,0.2-0.6,0.4C651.3,21.7,643.3,17.9,642.6,14.6z M634.7,22.4c-0.5-0.5-0.6-1.1-0.3-1.8
		c0.3-0.7,0.9-1.2,1.8-1.4c4.3-1.2,13.9,3.5,15.4,4.3c-0.1,0.1-0.1,0.2-0.2,0.3c0,0-0.1,0.1-0.1,0.2
		C649.5,24.1,637.3,24.9,634.7,22.4z M636.3,32.6c-0.5-0.2-0.8-0.6-0.8-1.3c0-0.9,0.5-1.8,1.4-2.5c3.4-2.6,11.8-3.1,13.7-3.2
		c0,0.2,0,0.5,0,0.7C647.4,28.4,639,33.4,636.3,32.6z M645.9,37.3c-0.1,0-0.4,0-0.7-0.4c-1.9-2.7,4.7-7.8,6.2-8.9
		c0.2,0.2,0.4,0.4,0.7,0.6C650.5,31.9,647.5,37.1,645.9,37.3z M654,29.5c1.7,2.8,0.8,10.9-0.8,11.6c-0.2,0.1-0.5,0-0.9-0.4
		c-2.5-2.7,0.7-9.8,1.4-11.3C653.8,29.4,653.9,29.5,654,29.5L654,29.5z M662.2,39.9c-0.3,0.4-0.9,0.6-1.7,0.7
		c-0.6,0-1.2-0.1-1.6-0.5c-2.4-1.9-1.8-8.1-1.6-9.5c0.2,0,0.5,0,0.7,0C659.7,32.6,663.6,38,662.2,39.9z M671.4,34.9
		c0.1,0.3,0,0.6-0.2,0.8c0,0,0,0,0,0c-0.3,0.4-0.7,0.5-1.2,0.5c-2.7,0-7.2-4.7-8.9-6.7c0.2-0.1,0.4-0.3,0.5-0.5c0,0,0,0,0,0
		c0.1-0.1,0.2-0.2,0.2-0.3C663.2,29.4,670.8,32.7,671.4,34.9z M675.9,29.1c0.4,0.5,0.3,1.1-0.1,1.7c-0.5,0.6-1.1,1-1.9,1.1
		c-3.7,0.4-9.8-4.8-10.7-5.5c0-0.1,0.1-0.2,0.1-0.3C665.1,26.2,674.2,26.8,675.9,29.1z M677.2,20.6c0.9,0.3,1.5,0.8,1.7,1.5
		c0.2,0.7,0.1,1.3-0.5,1.7c-2.8,2.1-13.9,0.5-15.3,0.3c-0.1-0.1-0.1-0.2-0.2-0.3C664.5,23.1,673.3,19.5,677.2,20.6z M672.6,14.4
		c0.8,0.2,0.9,0.4,0.9,0.5c0.2,1.5-7.6,5.3-12.6,7.4c-0.1-0.1-0.3-0.1-0.4-0.2c-0.1,0-0.1,0-0.2-0.1
		C661.4,20.7,667.8,13.4,672.6,14.4z"/>
	<g class="st2">
		<path class="st3" d="M603.7,313.5c-8.3-12.2-37.5,6.6-43.7,4.3c-6.2-2.3,0.8-10.5,26.9-14.3c26.1-3.8,41.8-18.9,29-26.1
			c-12.8-7.1-40,21.1-43,9.3c-3.1-11.8,62.8-49.4,31-62.9c-31.8-13.5-34,54.9-46.8,58.5c-12.8,3.6,4.3-32.9-23.1-32.7
			c-27.4,0.3,21.4,55.4,7.2,61c-14.2,5.6-7.1-34.5-20.4-26.9c-11.3,6.4,4.1,34.5,9.1,43c0.9,1.6,2.6,2.9,4.7,3.6l6,2.2
			c2.6,0.9,5.6,1,8.3,0.2C564,327.9,611.2,324.6,603.7,313.5z"/>
		<path class="st11" d="M596.2,313.8c0,0-32.1,10.7-54.7,10.1c4-6.3,9.2-14.4,14.8-23.3c5.3-0.7,36-5.4,54.9-18.5
			c0,0-27.2,15.3-54,17.1c16-25.2,35.6-56.5,44.4-72.1c0,0-26.2,40.6-47.1,72.4c-3.1-4-12.6-18.1-18.1-44.7c0,0,4.6,29.9,17.4,45.8
			c-5.6,8.5-10.7,16.2-14.8,22.4c-3.6-3.5-13-14.6-16.5-35.7c0,0,0.6,23.1,15.4,37.3c-2.6,3.9-4.8,7-6.3,9.1c-0.9,1.3-1,2.6-0.2,2.9
			c0.8,0.3,2.2-0.5,3-1.8c1.3-2.1,3.5-5.4,6.2-9.6C547.3,325,572.8,323.7,596.2,313.8z"/>
	</g>
	<g class="st2">
		<g>
			<path class="st0" d="M61.3,294.4c5.7,8.3,18.3,13.3,31,14c7.7,0.4,15.4-0.7,22.6-2.6c4.1-1.1,15.8-4.1,8-8
				c-5.4-2.7-12.7-4.1-19-5.2c-6.7-1.1-13.5-1.6-20.4-1.4c-3.8,0.1-7.6,0.4-11.4,1C71.2,292.4,61.2,294.4,61.3,294.4z"/>
			<path class="st0" d="M210.6,330c-8.5,1.7-17.7,1.1-25.8-1.5c-8-2.6-14.7-7.4-18.7-13.1c-1.2-1.8-4.8-8-1-9.2
				c1.8-0.6,4.8,0.6,6.5,1c2.2,0.6,4.4,1.2,6.5,2c8.4,2.9,16.1,6.9,22.6,11.8C204.4,323.7,207.8,326.7,210.6,330z"/>
			<path class="st0" d="M108,309.2c-6.5,3.8-11.8,8.6-17,13.3c10.3,0,20.6-1.9,29.7-5.4c5.2-2,13.3-5.9,12.7-11
				c-0.6-5.3-11-2.9-14.9-1.7C114.8,305.6,111.2,307.3,108,309.2z"/>
		</g>
		<g>
			<path class="st12" d="M71.7,298.2c-0.6-0.1-0.9-0.5-0.8-0.9c0.1-0.4,0.6-0.7,1.2-0.6c8.6,1.1,17.4,2.2,26.2,2.6
				c9.9,0.4,18.4-0.2,25.9-1.9c0.6-0.1,1.1,0.1,1.3,0.5c0.2,0.4-0.1,0.8-0.7,1c-7.8,1.7-16.5,2.4-26.7,1.9
				C89.2,300.4,80.3,299.3,71.7,298.2C71.7,298.2,71.7,298.2,71.7,298.2z"/>
			<path class="st12" d="M104.9,317.5c-0.3,0-0.6-0.2-0.8-0.4c-0.2-0.4,0-0.8,0.5-1c10.7-3.7,19.8-9.4,26.4-16.5
				c0.3-0.4,1-0.4,1.5-0.2c0.5,0.2,0.6,0.7,0.3,1.1c-6.8,7.4-16.2,13.3-27.2,17.1C105.3,317.6,105.1,317.6,104.9,317.5z"/>
			<path class="st12" d="M198.4,326.7c-0.1,0-0.2,0-0.3-0.1c-14.1-5.7-27.1-13.5-37.3-22.7c-0.4-0.3-0.3-0.8,0.1-1.1
				c0.4-0.3,1.1-0.2,1.5,0.1c10.1,9,22.8,16.7,36.7,22.3c0.5,0.2,0.7,0.7,0.4,1C199.2,326.6,198.8,326.8,198.4,326.7z"/>
		</g>
		<path class="st12" d="M197.9,283.1c0.1-2-2.7-3.4-5.2-2.5c-7.2,2.7-13.8,6.2-19.4,10.5c0-0.4,0-0.7,0-1.1
			c2.7-5.9,7.7-11.2,14.3-15c0.4,0.3,1,0.4,1.5,0.4c0.9,0,1.8-0.4,2.3-1c3.2-3-4.5-5.1-4.9-1.2c0,0.2,0,0.3,0,0.5
			c-0.1,0-0.2,0-0.3,0.1c-4.1,2.4-7.7,5.3-10.4,8.6c0.7-4,0.6-8-0.5-11.9c-0.1-0.2-0.2-0.3-0.4-0.4c1-0.3,1.7-0.9,1.9-1.7
			c0.2-0.8-0.4-1.6-1.3-2.1c-2.3-1.1-5.5,0.8-4.2,2.7c0.4,0.6,1.3,1,2.2,1.1c-0.2,0.2-0.3,0.4-0.3,0.7c1.4,4.8,1.2,9.8-0.3,14.6
			c-1.6-9.3-8.3-18-18.2-23.8c-1.3-0.7-3.1-0.8-4.4,0c-10.3,5.6-18.3,13.4-22.8,22.2c-1-7.4,1.8-15,7.8-21c0.5,0.1,1,0.1,1.6,0
			c1.2-0.2,2.1-1,2.4-1.9c0.6-2.1-2.9-4.1-5.1-2.3c-1,0.8-1,2.1-0.4,3.1c-4.5,4.4-7.3,9.8-8.2,15.3c-1-4.1-2.7-8.1-4.9-11.9
			c0,0,0,0,0,0c0,0,0.1,0,0.1-0.1c0.8-0.6,1-1.5,0.7-2.3c-0.2-0.6-0.5-1.2-1.1-1.6c-3.2-2.2-5.8,2.3-3.3,4c0.4,0.3,1,0.4,1.6,0.5
			c0,0.1,0,0.1,0,0.2c2.9,5.1,4.9,10.5,5.7,16c-5.7-7.4-13.9-13.7-23.7-18.1c-2.4-1.1-5.6,0.2-5.5,2.3c0.3,10.3,2.8,20.8,9.9,29.6
			c5.9,7.3,15.5,13.2,26.3,15.6l0,0c14.1,4,36.4,3.6,48.5-3.1C190.5,302.3,197.2,292.8,197.9,283.1z"/>
		<path class="st4" d="M185.1,287.4c-6.5,2-11.6,5.9-16.1,9.5c0.2-8.6-2.8-17.3-8.7-24.7c-1.4-1.8-3.7-4.2-7.1-4.4
			c-3.8-0.3-6.8,2-9,4.1c-6.4,5.9-12.1,12.3-17.2,18.9c-6-7.1-13.5-13.2-22.4-18.4c-2.1-1.2-4.5-2.5-7.4-3.1
			c-0.7-0.1-1.3-0.2-1.9-0.2c0,0.3,0,0.5,0.1,0.8c0.6,0,1.1,0.1,1.6,0.2c2.7,0.5,5,1.8,7,2.9c9,5.2,16.7,11.5,22.6,18.7
			c0.1,0.1,0.3,0.2,0.5,0.2c0.2,0,0.4-0.1,0.4-0.2c5.1-6.8,11-13.3,17.5-19.3c2-1.9,4.8-4,8-3.8c3,0.2,5.1,2.4,6.3,4.1
			c6,7.6,9,16.6,8.5,25.3c0,0.2,0.1,0.3,0.3,0.4c0,0,0.1,0,0.1,0c0.2,0,0.4,0,0.5-0.1c4.6-3.7,9.9-8,16.7-10.1
			c3.5-1.1,7.8-1.4,11.7-0.8c0.1-0.3,0.1-0.5,0.2-0.8C193.3,285.9,188.8,286.2,185.1,287.4z"/>
		<g>
			<path class="st4" d="M122.8,304.3c-0.1,0-0.2,0-0.3-0.1l-1.9-1.3c-0.2-0.1-0.2-0.4,0-0.5c0.2-0.2,0.5-0.2,0.7,0l1.9,1.3
				c0.2,0.1,0.2,0.4,0,0.5C123.2,304.2,123,304.3,122.8,304.3z"/>
			<path class="st4" d="M128,303.3c-0.2,0-0.4-0.2-0.4-0.4l-0.2-2.7c0-0.2,0.2-0.4,0.5-0.4c0.3,0,0.5,0.1,0.6,0.4l0.2,2.7
				c0,0.2-0.2,0.4-0.5,0.4C128.1,303.3,128,303.3,128,303.3z"/>
			<path class="st4" d="M133.9,302.1c-0.2,0-0.4-0.2-0.4-0.4l0-2.6c0-0.2,0.2-0.4,0.5-0.4c0.3,0,0.5,0.2,0.5,0.4l0,2.6
				c0,0.2-0.2,0.4-0.5,0.4C134,302.1,134,302.1,133.9,302.1z"/>
			<path class="st4" d="M143.5,299.7C143.5,299.7,143.5,299.7,143.5,299.7c-0.3,0-0.5-0.2-0.4-0.5l0.7-2.6c0.1-0.2,0.3-0.3,0.6-0.3
				c0,0,0,0,0,0c0.3,0,0.5,0.2,0.4,0.5l-0.7,2.6C144.1,299.6,143.8,299.7,143.5,299.7z"/>
			<path class="st4" d="M148.5,299.9C148.4,299.9,148.4,299.9,148.5,299.9c-0.3-0.1-0.5-0.3-0.4-0.5l1.2-3.2
				c0.1-0.2,0.4-0.3,0.6-0.3c0.3,0.1,0.4,0.3,0.4,0.5l-1.2,3.2C149,299.8,148.7,299.9,148.5,299.9z"/>
			<path class="st4" d="M154.8,302.3c0,0-0.1,0-0.1,0c-0.3-0.1-0.4-0.3-0.3-0.5l1.2-2c0.1-0.2,0.4-0.3,0.7-0.2
				c0.3,0.1,0.4,0.3,0.3,0.5l-1.2,2C155.3,302.3,155,302.4,154.8,302.3z"/>
			<path class="st4" d="M160,304.2c-0.1,0-0.1,0-0.2,0c-0.3-0.1-0.4-0.3-0.2-0.5l1.2-1.7c0.1-0.2,0.5-0.3,0.7-0.2
				c0.3,0.1,0.4,0.3,0.2,0.5l-1.2,1.7C160.4,304.2,160.2,304.3,160,304.2z"/>
			<path class="st4" d="M165.1,306.4c-0.1,0-0.2-0.1-0.3-0.1c-0.2-0.2-0.2-0.4,0.1-0.5l1.6-1c0.2-0.1,0.6-0.1,0.7,0.1
				c0.2,0.2,0.2,0.4-0.1,0.5l-1.6,1C165.5,306.4,165.3,306.4,165.1,306.4z"/>
			<path class="st4" d="M169.7,308.8c-0.1,0-0.2,0-0.2-0.1c-0.2-0.1-0.2-0.4-0.1-0.5l1.6-1.3c0.2-0.2,0.5-0.2,0.7,0
				c0.2,0.1,0.2,0.4,0.1,0.5l-1.6,1.3C170,308.8,169.8,308.9,169.7,308.8z"/>
			<path class="st4" d="M128.2,308.9c-0.1,0-0.2,0-0.2-0.1l-1.3-0.8c-0.2-0.1-0.3-0.4-0.1-0.5c0.2-0.2,0.5-0.2,0.7-0.1l1.3,0.8
				c0.2,0.1,0.3,0.4,0.1,0.5C128.6,308.8,128.4,308.9,128.2,308.9z"/>
			<path class="st4" d="M134.6,308.3c-0.2,0-0.4-0.2-0.4-0.3l-0.4-2.5c0-0.2,0.2-0.4,0.5-0.4c0.3,0,0.6,0.1,0.6,0.3l0.4,2.5
				c0,0.2-0.2,0.4-0.5,0.4C134.7,308.3,134.7,308.3,134.6,308.3z"/>
			<path class="st4" d="M138.3,306.1c-0.2,0-0.4-0.2-0.4-0.4l0-1.7c0-0.2,0.2-0.4,0.5-0.4c0.3,0,0.5,0.2,0.5,0.4l0,1.7
				C138.9,305.9,138.7,306.1,138.3,306.1C138.4,306.1,138.4,306.1,138.3,306.1z"/>
			<path class="st4" d="M140.3,301.8c-0.3,0-0.5-0.2-0.4-0.5l0.3-1.2c0.1-0.2,0.3-0.3,0.6-0.3c0.3,0,0.5,0.2,0.4,0.5l-0.3,1.2
				C140.9,301.7,140.6,301.8,140.3,301.8z"/>
			<path class="st4" d="M143.7,305.5c-0.3,0-0.5-0.2-0.4-0.4l0.3-1.7c0-0.2,0.3-0.4,0.6-0.3c0.3,0,0.5,0.2,0.5,0.4l-0.3,1.7
				C144.3,305.4,144,305.6,143.7,305.5C143.7,305.5,143.7,305.5,143.7,305.5z"/>
			<path class="st4" d="M147.8,304.3c-0.3,0-0.5-0.2-0.4-0.5l0.3-1.3c0.1-0.2,0.3-0.3,0.6-0.3c0.3,0,0.5,0.2,0.4,0.5l-0.3,1.3
				C148.4,304.2,148.1,304.4,147.8,304.3z"/>
			<path class="st4" d="M151.1,307.3c-0.1,0-0.1,0-0.2,0c-0.3-0.1-0.3-0.3-0.2-0.5l1-1.3c0.1-0.2,0.5-0.3,0.7-0.1
				c0.3,0.1,0.3,0.3,0.2,0.5l-1,1.3C151.5,307.3,151.3,307.4,151.1,307.3z"/>
			<path class="st4" d="M155.9,308.6c-0.1,0-0.1,0-0.2,0c-0.2-0.1-0.3-0.3-0.2-0.5l1-1.2c0.1-0.2,0.5-0.2,0.7-0.1
				c0.2,0.1,0.3,0.3,0.2,0.5l-1,1.2C156.3,308.6,156.1,308.7,155.9,308.6z"/>
			<path class="st4" d="M162.3,311.3c-0.1,0-0.2-0.1-0.3-0.1c-0.2-0.2-0.2-0.4,0.1-0.5l2.4-1.4c0.2-0.1,0.6-0.1,0.7,0
				c0.2,0.2,0.2,0.4-0.1,0.5l-2.4,1.4C162.6,311.3,162.4,311.3,162.3,311.3z"/>
			<path class="st4" d="M160.6,310.3c-0.1,0-0.1,0-0.2,0c-0.3-0.1-0.3-0.3-0.2-0.5l1.2-1.5c0.1-0.2,0.5-0.2,0.7-0.1
				c0.3,0.1,0.3,0.3,0.2,0.5l-1.2,1.5C161,310.3,160.8,310.3,160.6,310.3z"/>
			<path class="st4" d="M143.6,311.3c-0.2,0-0.4-0.2-0.4-0.4l0-1.7c0-0.2,0.2-0.4,0.5-0.4c0.3,0,0.5,0.2,0.5,0.4l0,1.7
				C144.2,311.1,143.9,311.3,143.6,311.3C143.6,311.3,143.6,311.3,143.6,311.3z"/>
			<path class="st4" d="M146.9,309.3c-0.3,0-0.5-0.2-0.4-0.4l0.2-1.3c0-0.2,0.3-0.4,0.6-0.3c0.3,0,0.5,0.2,0.5,0.4l-0.2,1.3
				C147.5,309.2,147.3,309.3,146.9,309.3C147,309.3,146.9,309.3,146.9,309.3z"/>
			<path class="st4" d="M150.6,312.2c-0.1,0-0.1,0-0.2-0.1c-0.2-0.1-0.3-0.4-0.2-0.5l1.4-1.6c0.2-0.2,0.5-0.2,0.7-0.1
				c0.2,0.1,0.3,0.4,0.2,0.5l-1.4,1.6C151,312.2,150.8,312.2,150.6,312.2z"/>
			<path class="st4" d="M138.9,310.9c-0.1,0-0.3-0.1-0.4-0.2l-0.8-1c-0.1-0.2-0.1-0.4,0.2-0.5c0.2-0.1,0.6-0.1,0.7,0.1l0.8,1
				c0.1,0.2,0.1,0.4-0.2,0.5C139.1,310.9,139,311,138.9,310.9z"/>
			<path class="st4" d="M155.3,312.2c-0.1,0-0.2-0.1-0.3-0.2c-0.2-0.2-0.1-0.4,0.1-0.5l1.7-0.9c0.2-0.1,0.6-0.1,0.7,0.1
				c0.2,0.2,0.1,0.4-0.1,0.5l-1.7,0.9C155.5,312.2,155.4,312.3,155.3,312.2z"/>
		</g>
	</g>
	<g class="st2">
		<path class="st12" d="M9,55.5c-4.7,7.3-8.2,15.5-8.8,24c-0.1,1.6,0.1,3.4,1.5,4.2c1,0.5,2.3,0.2,3.2-0.3c1-0.6,1.7-1.4,2.5-2.2
			c1.6-1.5,3.6-2.6,5.8-2.6c2.3,0,4.4,1.4,6.4,2.6c2,1.2,4.3,2.4,6.6,1.9c2.5-0.6,4.2-3,4.5-5.4c0.4-2.4-0.2-4.9-0.7-7.3
			c-2.4-12.5-1.1-25.6,3.8-37.4c0,0.3-6.4,1.5-7.1,1.8c-1.5,0.5-2.2,1.4-3.2,2.5c-3.3,3.7-6.6,7.4-9.6,11.3
			C12.2,50.9,10.5,53.2,9,55.5z"/>
		<path class="st12" d="M29.8,53.7c0.8,5.6,2.7,10.9,3.5,16.4c0.6,4.2,0.6,8.8,2.6,12.4c0.6,1.2,1.5,2.2,2.6,2.8
			c1.1,0.6,2.5,0.7,3.5,0c2.4-1.5,1.8-5.7,3.7-7.9c1.7-1.9,4.6-1.7,6.8-0.4c2.2,1.3,3.8,3.3,5.9,4.8c2,1.5,4.8,2.4,6.9,1
			c1.6-1,2.3-3.1,2.4-5.1c0-2-0.6-4-1.3-5.8C63,62.9,58,54.6,51.9,47.5c-3.1-3.5-6.5-6.7-10.2-9.5c-2.4-1.8-8.2-7.6-10.2-3.1
			C29.1,40.4,29,47.7,29.8,53.7z"/>
		<path class="st12" d="M38.4,38.3c1.3,1,2.9,1.7,4.4,2.5c9.3,4.7,17.5,11.6,23.6,19.8c1.2,1.6,2.3,3.2,3.7,4.6
			c1.4,1.4,3.3,2.4,5.3,2.6c1.9,0.2,3.8-0.5,5.4-1.6c1.5-1.1,2.7-2.6,3.6-4.2c2.2-3.6,3.2-8.3,1.1-11.9c-1.5-2.6-4.4-4.2-7.2-5.6
			c-8.7-4.2-17.9-7.5-27.4-9.5c-3.5-0.8-7.2-1.4-10.8-1.2c-1.1,0.1-3.9,0-4.2,1.2C35.4,35.9,37.5,37.7,38.4,38.3z"/>
		<g>
			<path class="st4" d="M27.7,33.4c-0.1,0-0.2,0.1-0.3,0.2c-6.5,9-11.4,18.8-14.8,29.2c-0.1,0.2,0.1,0.4,0.3,0.5
				c0.2,0.1,0.4,0,0.5-0.2c3.3-10.3,8.3-20.1,14.7-29c0.1-0.2,0.1-0.4-0.1-0.5C27.9,33.4,27.8,33.4,27.7,33.4z"/>
			<path class="st4" d="M29.9,31.3c-0.1,0-0.3,0.1-0.3,0.2c-5.2,12.1-9.4,24.8-12.3,37.6c0,0.2,0.1,0.4,0.3,0.4
				c0.2,0,0.4-0.1,0.5-0.3c2.9-12.8,7-25.4,12.3-37.5c0.1-0.2,0-0.4-0.2-0.5C30,31.3,29.9,31.3,29.9,31.3z"/>
			<path class="st4" d="M29.6,28.8C29.6,28.8,29.6,28.8,29.6,28.8c-0.3,0.1-0.4,0.3-0.3,0.5l6.9,26.2c0.1,0.2,0.3,0.3,0.5,0.3
				c0.2-0.1,0.3-0.3,0.3-0.4l-6.4-24.5c0-0.1,0-0.1,0-0.2l-0.4-1.5C30,28.9,29.8,28.8,29.6,28.8z"/>
			<path class="st4" d="M31,29.4C31,29.4,31,29.4,31,29.4c-0.3,0.1-0.4,0.3-0.3,0.4l0.2,1c0,0.2,0.2,0.3,0.4,0.3c0,0,0.1,0,0.1,0
				c6.4,10.6,9.1,22.8,11.7,34.6c0,0.2,0.2,0.3,0.5,0.3c0.2,0,0.3-0.2,0.3-0.4c-2.7-12.3-5.5-25-12.5-35.9
				C31.3,29.5,31.2,29.4,31,29.4z"/>
			<path class="st4" d="M31.9,29.1c-0.1,0-0.2,0.1-0.3,0.1c-0.1,0.2-0.1,0.4,0.1,0.5c4.1,3,7.7,7.3,10.7,12.7
				c2.7,4.9,4.6,10.2,6.5,15.3c0.1,0.2,0.3,0.3,0.5,0.2c0.2-0.1,0.3-0.3,0.2-0.5C47.7,52.3,45.7,47,43,42.1
				c-3-5.5-6.7-9.9-10.9-12.9C32,29.1,32,29,31.9,29.1z"/>
			<path class="st4" d="M32.7,31c-0.1,0-0.3,0.1-0.3,0.2c-0.1,0.2,0,0.4,0.2,0.5l1.4,0.7c0.1,0.1,0.2,0,0.4,0
				c8.6,3.3,16.6,8.3,23.2,14.5c0.2,0.1,0.4,0.1,0.6,0c0.2-0.1,0.1-0.4,0-0.5C51,39.6,42.3,34.3,32.9,31C32.9,31,32.8,31,32.7,31z"
				/>
			<path class="st4" d="M33.7,31.2c-0.2,0-0.3,0.1-0.3,0.3c-0.1,0.2,0.1,0.4,0.3,0.5c12.8,3.1,24.7,8.2,35.5,15.4
				c0.2,0.1,0.4,0.1,0.5-0.1c0.1-0.2,0.1-0.4-0.1-0.5c-10.9-7.2-22.9-12.4-35.8-15.5C33.8,31.2,33.7,31.2,33.7,31.2z"/>
		</g>
		<g>
			<path class="st4" d="M2.3,78.2c-0.2,0-0.4,0.2-0.4,0.4l0,1.1c0,0.2,0.2,0.4,0.4,0.4c0.2,0,0.4-0.2,0.4-0.4l0-1.1
				C2.7,78.4,2.5,78.2,2.3,78.2C2.3,78.2,2.3,78.2,2.3,78.2z"/>
			<path class="st4" d="M6.3,77.9c-0.2,0-0.3,0.1-0.3,0.3l-0.2,1c0,0.2,0.1,0.4,0.3,0.4c0.2,0,0.4-0.1,0.5-0.3l0.2-1
				c0-0.2-0.1-0.4-0.3-0.4C6.4,77.9,6.3,77.9,6.3,77.9z"/>
			<path class="st4" d="M11.1,74.7c-0.2,0-0.3,0.2-0.4,0.3l-0.1,0.9c0,0.2,0.1,0.4,0.4,0.4c0.2,0,0.4-0.1,0.4-0.3l0.1-0.9
				C11.6,74.9,11.4,74.7,11.1,74.7C11.2,74.7,11.2,74.7,11.1,74.7z"/>
			<path class="st4" d="M14.1,75.1c-0.2,0-0.3,0.1-0.3,0.3l-0.3,1.3c0,0.2,0.1,0.4,0.3,0.4c0.2,0,0.4-0.1,0.5-0.3l0.3-1.3
				c0-0.2-0.1-0.4-0.3-0.4C14.1,75.1,14.1,75.1,14.1,75.1z"/>
			<path class="st4" d="M17,76.3c-0.2,0-0.3,0.1-0.3,0.3l-0.1,0.6c0,0.2,0.1,0.4,0.3,0.4c0.2,0,0.4-0.1,0.5-0.3l0.1-0.6
				c0-0.2-0.1-0.4-0.3-0.4C17.1,76.3,17,76.3,17,76.3z"/>
			<path class="st4" d="M21.1,77.5c-0.2,0-0.3,0.2-0.4,0.4l0,1.1c0,0.2,0.2,0.4,0.4,0.4c0.2,0,0.4-0.2,0.4-0.4l0-1.1
				C21.5,77.7,21.3,77.5,21.1,77.5C21.1,77.5,21.1,77.5,21.1,77.5z"/>
			<path class="st4" d="M24.7,79c-0.2,0-0.4,0.2-0.4,0.4l0.1,1c0,0.2,0.2,0.4,0.4,0.3c0.2,0,0.4-0.2,0.4-0.4l-0.1-1
				C25.1,79.1,24.9,79,24.7,79z"/>
			<path class="st4" d="M26.8,76.5c-0.2,0-0.4,0.2-0.4,0.4l0,1.3c0,0.2,0.2,0.4,0.4,0.4c0.2,0,0.4-0.2,0.4-0.4l0-1.3
				C27.3,76.6,27.1,76.5,26.8,76.5C26.9,76.5,26.8,76.5,26.8,76.5z"/>
			<path class="st4" d="M28.6,74.3c-0.2,0-0.4,0.2-0.4,0.4l0.2,1.8c0,0.2,0.2,0.4,0.4,0.3c0.2,0,0.4-0.2,0.4-0.4L29,74.6
				C29,74.4,28.8,74.3,28.6,74.3z"/>
			<path class="st4" d="M2.8,74.6c-0.2,0-0.3,0.1-0.3,0.3l-0.2,1.1c0,0.2,0.1,0.4,0.3,0.4c0.2,0,0.4-0.1,0.4-0.3L3.3,75
				C3.3,74.8,3.1,74.6,2.8,74.6C2.9,74.6,2.9,74.6,2.8,74.6z"/>
			<path class="st4" d="M4.6,76.2c-0.2,0-0.4,0.2-0.4,0.4l0,0.9c0,0.2,0.2,0.4,0.4,0.4c0.2,0,0.4-0.2,0.4-0.4l0-0.9
				C5.1,76.3,4.9,76.2,4.6,76.2C4.7,76.2,4.6,76.2,4.6,76.2z"/>
			<path class="st4" d="M8.4,75.1c-0.2,0-0.3,0.1-0.3,0.3l-0.2,1.2C7.8,76.8,8,77,8.2,77c0.2,0,0.4-0.1,0.4-0.3l0.2-1.2
				c0-0.2-0.1-0.4-0.3-0.4C8.5,75.1,8.4,75.1,8.4,75.1z"/>
			<path class="st4" d="M23.2,76.1c-0.2,0-0.4,0.2-0.4,0.4l0.1,2c0,0.2,0.2,0.4,0.4,0.4c0.2,0,0.4-0.2,0.4-0.4l-0.1-2
				C23.6,76.3,23.4,76.1,23.2,76.1C23.2,76.1,23.2,76.1,23.2,76.1z"/>
			<path class="st4" d="M19.3,75.2c-0.2,0-0.4,0.2-0.4,0.4l0.1,1.2c0,0.2,0.2,0.4,0.4,0.4c0.2,0,0.4-0.2,0.4-0.4l-0.1-1.2
				C19.7,75.3,19.5,75.2,19.3,75.2C19.3,75.2,19.3,75.2,19.3,75.2z"/>
			<path class="st4" d="M28.1,71.8C28.1,71.8,28.1,71.8,28.1,71.8c-0.2,0-0.4,0.2-0.3,0.4l0.2,1c0,0.2,0.2,0.4,0.4,0.3
				c0.2,0,0.4-0.2,0.3-0.4l-0.2-1C28.5,71.9,28.3,71.8,28.1,71.8z"/>
			<path class="st4" d="M6.3,73.1c-0.2,0-0.3,0.2-0.4,0.4l-0.1,1.4c0,0.2,0.2,0.4,0.4,0.4c0.2,0,0.4-0.1,0.4-0.4l0.1-1.4
				C6.7,73.3,6.6,73.1,6.3,73.1C6.3,73.1,6.3,73.1,6.3,73.1z"/>
			<path class="st4" d="M3.9,70.8c-0.2,0-0.3,0.1-0.3,0.3l-0.4,1.8c0,0.2,0.1,0.4,0.3,0.4c0.2,0,0.4-0.1,0.5-0.3l0.4-1.8
				c0-0.2-0.1-0.4-0.3-0.4C4,70.8,4,70.8,3.9,70.8z"/>
			<path class="st4" d="M25.6,74.5c-0.2,0-0.4,0.2-0.4,0.4l0,1.1c0,0.2,0.2,0.4,0.4,0.4c0.2,0,0.4-0.2,0.4-0.4l0-1.1
				C26,74.6,25.8,74.5,25.6,74.5C25.6,74.5,25.6,74.5,25.6,74.5z"/>
			<path class="st4" d="M37.6,80.6C37.6,80.6,37.6,80.6,37.6,80.6c-0.2,0-0.4,0.2-0.3,0.4l0.3,1.5c0,0.2,0.2,0.3,0.5,0.3
				c0.2,0,0.4-0.2,0.3-0.4L38,80.9C38,80.7,37.8,80.5,37.6,80.6z"/>
			<path class="st4" d="M36.5,77.3C36.5,77.3,36.5,77.3,36.5,77.3c-0.2,0-0.4,0.2-0.3,0.4l0.3,1.4c0,0.2,0.2,0.3,0.5,0.3
				c0.2,0,0.3-0.2,0.3-0.4l-0.3-1.4C36.9,77.4,36.7,77.2,36.5,77.3z"/>
			<path class="st4" d="M40.8,82.2C40.8,82.2,40.8,82.2,40.8,82.2c-0.2,0-0.4,0.2-0.3,0.4l0.1,0.8c0,0.2,0.2,0.3,0.4,0.3
				c0.2,0,0.4-0.2,0.3-0.4l-0.1-0.8C41.2,82.3,41,82.2,40.8,82.2z"/>
			<path class="st4" d="M40.4,78.2C40.4,78.2,40.4,78.2,40.4,78.2c-0.2,0-0.4,0.2-0.3,0.4l0.2,1.8c0,0.2,0.2,0.3,0.4,0.3
				c0.2,0,0.4-0.2,0.3-0.4l-0.2-1.8C40.8,78.3,40.6,78.2,40.4,78.2z"/>
			<path class="st4" d="M42.5,79.4C42.5,79.4,42.5,79.4,42.5,79.4c-0.2,0-0.4,0.2-0.3,0.4l0.2,1.2c0,0.2,0.2,0.4,0.4,0.3
				c0.2,0,0.4-0.2,0.3-0.4l-0.2-1.2C42.9,79.5,42.7,79.4,42.5,79.4z"/>
			<path class="st4" d="M43.3,75.5c-0.2,0-0.4,0.2-0.4,0.4l0.2,1.5c0,0.2,0.2,0.4,0.4,0.3c0.2,0,0.4-0.2,0.4-0.4l-0.2-1.5
				C43.7,75.6,43.5,75.5,43.3,75.5z"/>
			<path class="st4" d="M47.4,74c-0.2,0-0.4,0.2-0.4,0.4l0.1,0.7c0,0.2,0.2,0.4,0.4,0.3c0.2,0,0.4-0.2,0.4-0.4l-0.1-0.7
				C47.8,74.1,47.6,74,47.4,74z"/>
			<path class="st4" d="M50.3,73.7c-0.2,0-0.4,0.2-0.4,0.4l0.1,1.2c0,0.2,0.2,0.4,0.4,0.4c0.2,0,0.4-0.2,0.4-0.4L50.7,74
				C50.7,73.8,50.5,73.7,50.3,73.7C50.3,73.7,50.3,73.7,50.3,73.7z"/>
			<path class="st4" d="M53.9,74.4C53.9,74.4,53.8,74.4,53.9,74.4c-0.3,0.1-0.4,0.3-0.3,0.5l0.3,1.3c0.1,0.2,0.3,0.3,0.5,0.3
				c0.2,0,0.3-0.2,0.3-0.4l-0.3-1.3C54.3,74.5,54.1,74.4,53.9,74.4z"/>
			<path class="st4" d="M57.8,77.9c0,0-0.1,0-0.1,0c-0.2,0.1-0.3,0.3-0.2,0.5l0.9,1.8c0.1,0.2,0.3,0.3,0.5,0.2
				c0.2-0.1,0.3-0.3,0.2-0.5l-0.9-1.8C58.1,77.9,58,77.9,57.8,77.9z"/>
			<path class="st4" d="M61.6,79.2C61.6,79.2,61.6,79.2,61.6,79.2c-0.3,0.1-0.4,0.3-0.3,0.5l0.5,1.4c0.1,0.2,0.3,0.3,0.5,0.2
				c0.2-0.1,0.3-0.3,0.3-0.5L62,79.5C62,79.3,61.8,79.2,61.6,79.2z"/>
			<path class="st4" d="M64.1,78.5C64.1,78.5,64.1,78.5,64.1,78.5c-0.3,0.1-0.4,0.3-0.3,0.5l0.3,1c0.1,0.2,0.3,0.3,0.5,0.3
				c0.2-0.1,0.3-0.3,0.3-0.5l-0.3-1C64.5,78.6,64.3,78.4,64.1,78.5z"/>
			<path class="st4" d="M63.5,71.9c0,0-0.1,0-0.1,0c-0.2,0.1-0.3,0.3-0.2,0.5l1,2.3c0.1,0.2,0.3,0.3,0.5,0.2
				c0.2-0.1,0.3-0.3,0.2-0.5l-1-2.3C63.8,72,63.6,71.9,63.5,71.9z"/>
			<path class="st4" d="M61.9,74c0,0-0.1,0-0.1,0c-0.2,0.1-0.3,0.3-0.2,0.5l0.8,1.7c0.1,0.2,0.3,0.3,0.5,0.2
				c0.2-0.1,0.3-0.3,0.2-0.5l-0.8-1.7C62.3,74.1,62.1,74,61.9,74z"/>
			<path class="st4" d="M61.9,68.4c0,0-0.1,0-0.1,0c-0.2,0.1-0.3,0.3-0.2,0.5l0.7,1.2c0.1,0.2,0.3,0.3,0.5,0.2
				c0.2-0.1,0.3-0.3,0.2-0.5l-0.7-1.2C62.3,68.5,62.1,68.4,61.9,68.4z"/>
			<path class="st4" d="M59,76.1c0,0-0.1,0-0.1,0c-0.2,0.1-0.3,0.3-0.2,0.5l0.7,1.2c0.1,0.2,0.3,0.3,0.5,0.2
				c0.2-0.1,0.3-0.3,0.2-0.5l-0.7-1.2C59.3,76.1,59.2,76.1,59,76.1z"/>
			<path class="st4" d="M56.2,73.3C56.2,73.3,56.1,73.3,56.2,73.3c-0.3,0.1-0.4,0.3-0.3,0.5l0.6,1.5c0.1,0.2,0.3,0.3,0.5,0.2
				c0.2-0.1,0.3-0.3,0.2-0.5l-0.6-1.5C56.5,73.4,56.4,73.3,56.2,73.3z"/>
			<path class="st4" d="M44.6,73.7C44.6,73.7,44.5,73.7,44.6,73.7c-0.3,0.1-0.4,0.3-0.3,0.5l0.4,1.1c0.1,0.2,0.3,0.3,0.5,0.2
				c0.2-0.1,0.3-0.3,0.2-0.5L45,74C44.9,73.8,44.8,73.7,44.6,73.7z"/>
			<path class="st4" d="M35.4,73.1c-0.2,0-0.4,0.2-0.4,0.4l0.1,1.6c0,0.2,0.2,0.4,0.4,0.3c0.2,0,0.4-0.2,0.4-0.4l-0.1-1.6
				C35.8,73.2,35.6,73.1,35.4,73.1C35.4,73.1,35.4,73.1,35.4,73.1z"/>
			<path class="st4" d="M38.5,76.1C38.5,76.1,38.5,76.1,38.5,76.1c-0.3,0-0.4,0.2-0.3,0.4l0.2,1.2c0,0.2,0.2,0.3,0.5,0.3
				c0.2,0,0.3-0.2,0.3-0.4l-0.2-1.2C38.9,76.2,38.7,76.1,38.5,76.1z"/>
			<path class="st4" d="M51.5,72C51.5,72,51.5,72,51.5,72c-0.3,0.1-0.4,0.3-0.3,0.5l0.5,1.4c0.1,0.2,0.3,0.3,0.5,0.2
				c0.2-0.1,0.3-0.3,0.3-0.5l-0.5-1.4C51.9,72.1,51.7,72,51.5,72z"/>
			<path class="st4" d="M41.4,75.5C41.4,75.5,41.4,75.5,41.4,75.5c-0.3,0.1-0.4,0.3-0.3,0.5l0.3,1.3c0,0.2,0.3,0.3,0.5,0.3
				c0.2,0,0.3-0.2,0.3-0.4l-0.3-1.3C41.8,75.6,41.6,75.5,41.4,75.5z"/>
			<path class="st4" d="M59.1,72.3C59.1,72.4,59.1,72.4,59.1,72.3c-0.3,0.1-0.4,0.3-0.3,0.5l0.6,1.6c0.1,0.2,0.3,0.3,0.5,0.2
				c0.2-0.1,0.3-0.3,0.2-0.5l-0.6-1.6C59.5,72.4,59.3,72.3,59.1,72.3z"/>
			<path class="st4" d="M71.8,62.2c-0.1,0-0.1,0-0.1,0c-0.2,0.1-0.3,0.3-0.2,0.5l1,1.7c0.1,0.2,0.3,0.2,0.5,0.1
				c0.2-0.1,0.3-0.3,0.2-0.5l-1-1.7C72.1,62.3,72,62.2,71.8,62.2z"/>
			<path class="st4" d="M75.6,63c-0.1,0-0.1,0-0.2,0.1c-0.2,0.1-0.2,0.3-0.1,0.5l1.4,1.9c0.1,0.2,0.4,0.2,0.5,0.1
				c0.2-0.1,0.2-0.3,0.1-0.5L76,63.2C75.9,63,75.7,63,75.6,63z"/>
			<path class="st4" d="M78.1,62.2c-0.1,0-0.1,0-0.2,0.1c-0.2,0.1-0.2,0.4-0.1,0.5l1,1.3c0.1,0.2,0.4,0.2,0.5,0.1
				c0.2-0.1,0.2-0.4,0.1-0.5l-1-1.3C78.3,62.2,78.2,62.2,78.1,62.2z"/>
			<path class="st4" d="M80.7,59.8c-0.1,0-0.1,0-0.2,0.1c-0.2,0.1-0.2,0.4-0.1,0.5l1.3,1.6c0.1,0.2,0.4,0.2,0.5,0.1
				c0.2-0.1,0.2-0.4,0.1-0.5L81,60C80.9,59.9,80.8,59.8,80.7,59.8z"/>
			<path class="st4" d="M81.7,57.2c-0.1,0-0.2,0.1-0.3,0.2c-0.1,0.2-0.1,0.4,0.1,0.5l1.2,0.8c0.2,0.1,0.4,0.1,0.5-0.1
				c0.1-0.2,0.1-0.4-0.1-0.5l-1.2-0.8C81.9,57.2,81.8,57.2,81.7,57.2z"/>
			<path class="st4" d="M82.5,55.1c-0.1,0-0.2,0-0.2,0.1c-0.1,0.2-0.1,0.4,0,0.5l1,0.8c0.2,0.1,0.4,0.1,0.6,0c0.1-0.2,0.1-0.4,0-0.5
				l-1-0.8C82.7,55.1,82.6,55.1,82.5,55.1z"/>
			<path class="st4" d="M81.8,51.6c-0.1,0-0.2,0.1-0.3,0.2c-0.1,0.2-0.1,0.4,0.1,0.5l1.6,0.9c0.2,0.1,0.4,0.1,0.5-0.1
				c0.1-0.2,0.1-0.4-0.1-0.5l-1.6-1C82,51.6,81.9,51.6,81.8,51.6z"/>
			<path class="st4" d="M81,47.6c-0.1,0-0.2,0.1-0.3,0.1c-0.1,0.2-0.1,0.4,0.1,0.5l2.1,1.5c0.2,0.1,0.4,0.1,0.5-0.1
				c0.1-0.2,0.1-0.4-0.1-0.5l-2.1-1.5C81.1,47.6,81,47.6,81,47.6z"/>
			<path class="st4" d="M68.5,59.9c-0.1,0-0.2,0-0.2,0.1c-0.2,0.1-0.2,0.4,0,0.5l1.2,1.4c0.1,0.2,0.4,0.2,0.5,0
				c0.2-0.1,0.2-0.4,0-0.5L68.8,60C68.7,60,68.6,59.9,68.5,59.9z"/>
			<path class="st4" d="M73.6,60.2c-0.1,0-0.1,0-0.2,0.1c-0.2,0.1-0.2,0.4-0.1,0.5l0.8,1c0.1,0.2,0.4,0.2,0.5,0.1
				c0.2-0.1,0.2-0.4,0.1-0.5l-0.8-1C73.8,60.2,73.7,60.2,73.6,60.2z"/>
			<path class="st4" d="M77.4,59.2c-0.1,0-0.1,0-0.2,0.1c-0.2,0.1-0.2,0.4-0.1,0.5l1.3,1.7c0.1,0.2,0.4,0.2,0.5,0.1
				c0.2-0.1,0.2-0.4,0.1-0.5l-1.3-1.7C77.7,59.2,77.5,59.2,77.4,59.2z"/>
			<path class="st4" d="M78.7,56.9c-0.1,0-0.1,0-0.2,0.1c-0.2,0.1-0.2,0.4-0.1,0.5l0.8,1c0.1,0.2,0.4,0.2,0.5,0.1
				c0.2-0.1,0.2-0.4,0.1-0.5l-0.8-1C79,57,78.9,56.9,78.7,56.9z"/>
			<path class="st4" d="M79,53.2c-0.1,0-0.1,0-0.2,0.1c-0.2,0.1-0.2,0.4,0,0.5l1.4,1.6c0.1,0.2,0.4,0.2,0.5,0c0.2-0.1,0.2-0.4,0-0.5
				l-1.4-1.6C79.3,53.2,79.1,53.2,79,53.2z"/>
			<path class="st4" d="M78.6,49.7c-0.1,0-0.2,0-0.2,0.1c-0.2,0.1-0.2,0.4,0,0.5l1,1.1c0.1,0.2,0.4,0.2,0.6,0c0.2-0.1,0.2-0.4,0-0.5
				l-1-1.1C78.9,49.7,78.7,49.7,78.6,49.7z"/>
			<path class="st4" d="M77.4,46.5c-0.1,0-0.2,0-0.3,0.1c-0.1,0.2-0.1,0.4,0,0.5l1.3,1.1c0.2,0.1,0.4,0.1,0.6,0
				c0.1-0.2,0.1-0.4,0-0.5l-1.3-1.1C77.7,46.5,77.6,46.5,77.4,46.5z"/>
			<path class="st4" d="M70.5,58.7c-0.1,0-0.1,0-0.2,0.1c-0.2,0.1-0.2,0.3-0.1,0.5l0.7,1.1c0.1,0.2,0.4,0.2,0.5,0.1
				c0.2-0.1,0.2-0.3,0.1-0.5l-0.7-1.1C70.8,58.8,70.6,58.7,70.5,58.7z"/>
		</g>
		<path class="st5" d="M43.9,33.6c0.8-2.7-0.4-5.7-2.7-7.4c-2.3-1.7-5.5-2.2-8.3-1.6c-2.9,0.6-5.4,2.2-7.4,4.3
			c-1.6,1.7-2.9,3.9-3.2,6.1c-0.1,0.8-0.4,2.6,0.6,3c0.8,0.4,2.9-0.9,3.6-1.2C32.1,34.8,38,33.8,43.9,33.6z"/>
		<path class="st5" d="M8.6,10.5C0.4,6.8-9,5.5-18,6.9c-2.4,0.4-4.6-1.4-4.6-3.7l0,0c0-2,1.7-3.7,3.9-3.7c10.2-0.2,20.5,2.2,29.4,7
			C20.1,11.5,30,20.2,34,30c-3.2,1.7-4.1-0.1-5.7-2.6c-1.6-2.4-3.4-4.7-5.4-6.9C18.9,16.3,14,12.9,8.6,10.5z"/>
	</g>
</g>
<text transform="matrix(1 0 0 1 168.0012 148.2829)" class="st13 st14 st15">Mi Portfolio</text>
<text transform="matrix(1 0 0 1 183.8778 226.1769)" class="st13 st14 st16">Florencia Micaela Ocampo</text>
</svg>
